<svg width="120" height="120" viewBox="0 0 120 120" fill="none" xmlns="http://www.w3.org/2000/svg">
<g clip-path="url(#clip0_282_2)">
<path d="M58.5664 11.2499L60 12.7235L61.4335 11.2499C77.0064 -4.75805 104.535 1.14082 114.391 20.3884C119.253 29.8831 119.87 42.8334 112.047 58.2672C104.299 73.5532 88.2759 91.2353 59.9999 110.1C31.724 91.2371 15.7005 73.556 7.95263 58.2704C0.129824 42.837 0.746971 29.8864 5.6089 20.3912C15.4651 1.1425 42.9937 -4.7579 58.5664 11.2499Z" fill="white" stroke="#C53030" stroke-width="4"/>
<g clip-path="url(#clip1_282_2)">
<path d="M57.131 26.3293C50.3791 27.216 44.508 30.0236 39.8111 34.6273C35.7578 38.5944 33.0368 43.3799 31.6706 48.9498C31.0835 51.3482 30.8803 53.1897 30.8916 55.8836C30.9028 60.7714 31.8625 64.7955 34.0642 69.2286C36.2659 73.639 39.7434 77.5833 43.9887 80.4479C49.6566 84.2672 56.8487 86.1087 63.3408 85.3926C70.7927 84.5627 76.7428 81.7551 81.7558 76.6741C88.5302 69.797 91.3754 60.908 89.9302 50.9958C89.0947 45.176 85.7639 38.7649 81.4396 34.6159C77.3525 30.7056 72.441 28.0458 67.0667 26.8408C63.9844 26.1588 60.0214 25.9428 57.131 26.3293ZM64.2554 30.0805C72.3959 31.274 79.5879 36.5369 83.3139 44.0279C84.443 46.3012 85.2559 48.8702 85.6623 51.3936C85.9446 53.1442 85.9446 57.8388 85.6623 59.4643C84.9058 63.761 83.3703 67.3985 80.7961 70.8882C80.367 71.4792 79.2493 72.7296 78.3234 73.6617L76.6412 75.3441L76.7089 76.2194L76.7766 77.0832L76.4492 75.8329C76.0653 74.3438 75.7266 73.514 75.2298 72.8547C75.0266 72.5818 74.8572 72.2977 74.8572 72.2181C74.8685 72.1499 75.1508 71.8771 75.5008 71.627C76.133 71.1724 77.0025 70.2516 77.4767 69.5241C77.646 69.2854 77.8831 69.0922 78.1203 69.024C78.6847 68.8648 79.3283 68.1942 79.4751 67.6144C79.6332 67.0574 79.5767 66.796 79.1928 66.2164L78.9106 65.8071L79.1589 64.6818C79.4073 63.5678 79.4073 63.5451 79.2153 61.7945C79.1138 60.8284 79.0348 59.8963 79.0348 59.7371C79.0348 59.3393 78.1654 57.5887 77.4767 56.6225C76.325 54.9857 75.896 54.5992 74.2249 53.7808C72.2829 52.8146 71.5717 52.6554 69.607 52.735C67.8909 52.8032 66.4457 53.1328 65.1247 53.7694C63.7924 54.406 62.2794 55.9177 60.823 58.0889C60.3262 58.8164 60.2923 58.9073 60.2923 59.6121C60.2923 60.1577 60.1794 60.692 59.8858 61.6126C59.3891 63.1699 59.4117 63.5337 60.123 64.75C60.4053 65.2274 60.631 65.6821 60.631 65.7389C60.631 65.8071 60.4843 66.0231 60.2923 66.2276C59.694 66.8756 59.7052 67.8759 60.3262 68.5466C60.6762 68.9217 61.5342 69.2741 61.7488 69.1263C61.8053 69.0922 61.7601 68.808 61.6359 68.5011C61.2972 67.6031 61.3875 67.569 61.8052 68.4443C62.6294 70.1948 63.7472 71.3202 65.5425 72.2067C66.8973 72.866 68.0602 73.1616 69.72 73.2411C70.4652 73.2752 70.9733 73.3434 70.8491 73.3889C70.1716 73.6276 67.0554 73.1843 65.6215 72.6387L64.8763 72.3545L64.6844 72.6159C64.2667 73.1616 63.4424 74.969 63.2392 75.776C63.1263 76.2421 62.9682 77.1855 62.8892 77.8675C62.6633 79.9932 62.573 80.1864 62.336 78.936C61.9408 76.8673 59.2875 67.0688 58.9601 66.4777C58.9149 66.3869 58.2036 66.1482 57.3794 65.9436C56.5552 65.7276 55.6519 65.4775 55.3696 65.3638C55.0987 65.2615 54.839 65.2047 54.8051 65.2388C54.7712 65.2729 54.9631 65.6025 55.2341 65.9663C55.5051 66.3299 55.889 66.8869 56.0922 67.1939C56.6229 68.0464 57.8536 70.7063 58.2149 71.7634C58.61 72.8888 58.5762 72.9683 57.3907 73.98C56.9391 74.3665 56.5665 74.7644 56.5665 74.8667C56.5665 74.9576 57.0858 75.526 57.7181 76.1171C58.8132 77.1514 58.8585 77.2196 58.7681 77.5379L58.6665 77.8789L58.6213 77.5265C58.5988 77.2537 58.3277 76.9469 57.4132 76.0716C56.7584 75.4691 56.2277 74.9008 56.2277 74.8098C56.2277 74.7303 56.6342 74.3097 57.1197 73.8777C58.3616 72.8092 58.3729 72.741 57.8649 71.4337C57.0068 69.24 55.1664 65.8526 54.4889 65.216C54.2745 65.0114 54.1953 64.8182 54.1953 64.5113C54.1953 64.0452 54.2971 63.9315 54.8728 63.7383C55.46 63.5451 56.0357 63.1017 56.4309 62.5447C56.7471 62.1014 56.8825 62.0218 57.752 61.749C58.2826 61.5785 58.7116 61.3966 58.7116 61.3512C58.7116 61.2943 58.5085 60.9989 58.26 60.7032C57.7746 60.1122 57.6841 59.6917 58.0116 59.5894C58.1133 59.5553 58.5085 59.4984 58.8811 59.4529C59.2536 59.4188 59.5923 59.362 59.6375 59.3279C59.6827 59.3052 59.5697 58.8732 59.3891 58.3731C59.1971 57.8729 59.0504 57.3955 59.0504 57.3273C59.0504 57.2477 59.3439 57.0999 59.7052 56.9749C60.5069 56.7134 61.873 56.0314 61.873 55.8951C61.873 55.8383 61.4552 55.5653 60.9585 55.2926C59.9761 54.7697 58.9826 53.974 59.1294 53.8376C59.1745 53.7921 59.581 53.633 60.01 53.4966C61.0939 53.1328 62.2456 52.5986 63.1489 52.0188C63.5666 51.7574 63.9054 51.5187 63.8828 51.5073C63.8375 51.4732 60.7779 50.1547 60.4843 50.0524C60.3487 49.9956 60.3149 49.9274 60.3713 49.8251C60.4166 49.7341 61.1618 49.0066 62.0198 48.2109C62.8666 47.4038 63.5666 46.7104 63.5666 46.665C63.5666 46.574 62.8666 46.449 60.8005 46.1534C60.0553 46.0398 59.4004 45.9261 59.3552 45.8806C59.2988 45.8352 59.8181 44.8349 60.5069 43.6641C61.6247 41.743 61.8391 41.3338 61.7262 41.3338C61.7037 41.3338 60.7778 41.6635 59.6714 42.0727C58.0567 42.6638 57.6164 42.7775 57.5035 42.6638C57.2551 42.4137 57.0181 40.5381 57.0181 38.8558V37.2303L56.1035 37.7191C55.031 38.2989 53.597 39.4242 52.9308 40.2086C52.6824 40.5154 52.4228 40.7655 52.3776 40.7655C52.3211 40.7655 51.8921 40.2427 51.4066 39.5947C50.5711 38.4807 49.1597 36.9007 49.0017 36.9007C48.9566 36.9007 48.8662 37.4008 48.7984 38.0033C48.5953 39.7084 47.9968 41.7885 47.7032 41.7885C47.6242 41.7885 47.0823 41.5612 46.5064 41.2883C45.5807 40.8564 44.1693 40.4244 43.65 40.4244C43.5145 40.4244 43.5822 40.629 43.9097 41.2997C44.4064 42.3114 44.858 43.8915 44.8016 44.4371L44.7677 44.8008L43.7515 44.8804C40.7934 45.1078 39.4047 45.2442 39.4047 45.301C39.4047 45.3465 39.9015 45.8806 40.5112 46.5058C41.6515 47.6653 42.487 48.9043 42.4306 49.3363C42.408 49.4954 41.8322 49.9728 40.6466 50.8027C39.6869 51.4732 38.8853 52.0757 38.8627 52.1325C38.8401 52.1894 38.9643 52.2689 39.145 52.3144C40.3531 52.5758 40.8725 52.7464 41.3015 52.9964C41.8886 53.3488 42.4983 53.8717 42.8032 54.3037L43.0289 54.622L41.7644 55.8836C40.7031 56.9521 40.5225 57.1681 40.6579 57.2932C40.7483 57.3727 41.4257 57.6342 42.1709 57.8615C42.9161 58.0889 43.571 58.3276 43.6274 58.3844C43.6838 58.4413 43.5935 59.021 43.379 59.8167C43.1871 60.5556 43.0628 61.2034 43.0967 61.2602C43.1532 61.3625 45.0161 61.2716 45.3209 61.1579C45.6032 61.0556 45.7161 61.3284 45.7952 62.2265C45.8404 62.7494 45.9081 63.1927 45.9533 63.2154C46.0435 63.2722 47.3081 62.7266 47.3081 62.6357C47.3081 62.6016 47.1613 62.3629 46.9807 62.1014C46.2243 60.9874 45.7048 59.5894 45.2984 57.5319C45.0275 56.2246 44.9032 54.9743 45.0388 54.9743C45.0839 54.9743 45.1629 55.3381 45.2081 55.7813C45.4339 58.3162 46.5969 61.5331 47.6581 62.6016C47.9291 62.8744 48.5163 63.2609 49.0807 63.5223L50.0292 63.9656L49.9952 64.3862L49.9614 64.8068L47.4549 65.648L44.9483 66.4891L44.7226 67.1825C44.5983 67.569 44.079 69.3309 43.5822 71.1156C42.6564 74.3551 42.3741 75.1736 42.5096 74.2074C42.5661 73.7299 42.5435 73.6845 41.9676 73.0479C38.3659 69.1377 36.1417 64.5567 35.2723 59.237C34.9449 57.2932 34.9788 53.1328 35.3288 51.2231C36.311 45.8579 38.4789 41.4816 42.0241 37.7419C47.8049 31.6605 55.9003 28.8642 64.2554 30.0805ZM48.9792 66.8187C48.1662 68.5125 46.721 72.5705 46.8452 72.7865C46.9016 72.8888 47.3872 73.3548 47.9291 73.8322C48.4823 74.3097 48.9453 74.753 48.9679 74.8326C49.0017 74.9121 48.8323 75.1622 48.5953 75.4009C48.3468 75.6624 48.2565 75.7192 48.3694 75.5487C48.8097 74.8553 48.8436 74.9462 47.7032 73.8891C46.9355 73.1729 46.6307 72.8206 46.6307 72.6273C46.6307 72.0362 48.8662 66.3413 49.1033 66.3413C49.1597 66.3413 49.1033 66.5573 48.9792 66.8187Z" fill="#C53030"/>
</g>
</g>
<defs>
<clipPath id="clip0_282_2">
<rect width="120" height="120" fill="white"/>
</clipPath>
<clipPath id="clip1_282_2">
<rect width="59.4059" height="59.4059" fill="white" transform="translate(30.8911 26.1386)"/>
</clipPath>
</defs>
</svg>
