<svg xmlns="http://www.w3.org/2000/svg" xmlns:xlink="http://www.w3.org/1999/xlink" viewBox="0 0 299.66 309.12"><defs><style>.cls-1{fill:none;}.cls-2{isolation:isolate;}.cls-3{clip-path:url(#clip-path);}.cls-4{fill:#896c18;}.cls-5{clip-path:url(#clip-path-2);}.cls-6{fill:#775e15;}.cls-7{fill:#7c6116;}.cls-8{fill:#806516;}.cls-9{fill:#856817;}.cls-10{fill:#cb9f23;}.cls-11{fill:#b78916;}.cls-12{fill:#a07517;}.cls-13{clip-path:url(#clip-path-3);}.cls-14{fill:#867141;}.cls-15{fill:#816d3e;}.cls-16{fill:#b29556;}.cls-17{fill:#c9a961;}.cls-18{clip-path:url(#clip-path-4);}.cls-19{fill:#957d48;}.cls-20{fill:#907946;}.cls-21{fill:#8b7543;}.cls-22{fill:#c5a55f;}.cls-23{clip-path:url(#clip-path-5);}.cls-24{clip-path:url(#clip-path-6);}.cls-25{fill:#bc9d5a;}.cls-26{clip-path:url(#clip-path-7);}.cls-27{clip-path:url(#clip-path-8);}.cls-28{clip-path:url(#clip-path-9);}.cls-29{clip-path:url(#clip-path-10);}.cls-30{clip-path:url(#clip-path-11);}.cls-31{clip-path:url(#clip-path-12);}.cls-32{clip-path:url(#clip-path-13);}.cls-33{clip-path:url(#clip-path-14);}.cls-34{clip-path:url(#clip-path-15);}.cls-35{clip-path:url(#clip-path-16);}.cls-36{fill:#b49757;}.cls-37{clip-path:url(#clip-path-17);}.cls-38{fill:#ccab62;}.cls-39{fill:#7d693c;}.cls-40{clip-path:url(#clip-path-18);}.cls-41{fill:#d0af64;}.cls-42{clip-path:url(#clip-path-19);}.cls-43{clip-path:url(#clip-path-20);}.cls-44{fill:#bb9d5a;}.cls-45{clip-path:url(#clip-path-21);}.cls-46{clip-path:url(#clip-path-22);}.cls-47{clip-path:url(#clip-path-23);}.cls-48{clip-path:url(#clip-path-24);}.cls-49{fill:#977e49;}.cls-50{fill:#c7a760;}.cls-51{fill:#c3a45e;}.cls-52{clip-path:url(#clip-path-25);}.cls-53{clip-path:url(#clip-path-26);}.cls-54{clip-path:url(#clip-path-27);}.cls-55{clip-path:url(#clip-path-28);}.cls-56{clip-path:url(#clip-path-29);}.cls-57{clip-path:url(#clip-path-30);}.cls-58{clip-path:url(#clip-path-31);}.cls-59{clip-path:url(#clip-path-32);}.cls-60{fill:#dcb96a;}</style><clipPath id="clip-path"><path class="cls-1" d="M163.22,1.26l20.38,2.9c-1.56-.22-3.13-.42-4.7-.58s-3.17-.3-4.77-.41-3.2-.18-4.81-.23-3.24-.06-4.87,0L144.28,0c1.61,0,3.21,0,4.81.06s3.18.12,4.76.23,3.15.24,4.71.4S161.67,1.05,163.22,1.26Z"/></clipPath><clipPath id="clip-path-2"><path class="cls-1" d="M108.77,301.4l-19.34-7.08a128.27,128.27,0,0,1-36.16-20.49A137.46,137.46,0,0,1,24.8,242.47,147.66,147.66,0,0,1,6.28,202.32,159.64,159.64,0,0,1,0,155.64a165.6,165.6,0,0,1,12.1-60.22A161.7,161.7,0,0,1,43.57,45.91,147.91,147.91,0,0,1,89.34,12.46,132.49,132.49,0,0,1,144.28,0l20.17,2.89a133.8,133.8,0,0,0-55.58,12.66,149.76,149.76,0,0,0-46.33,34A164.23,164.23,0,0,0,30.66,99.73a168.61,168.61,0,0,0-12.28,61.1,162,162,0,0,0,6.32,47.35,149.49,149.49,0,0,0,18.71,40.7A138.68,138.68,0,0,0,72.2,280.66,129.34,129.34,0,0,0,108.77,301.4Z"/></clipPath><clipPath id="clip-path-3"><path class="cls-1" d="M219.05,211.69l-19.93-5.61c.7-.77,1.45-1.61,2.19-2.46s1.47-1.71,2.16-2.54,1.33-1.62,1.88-2.32,1-1.33,1.34-1.82a96.79,96.79,0,0,0,5.39-8.68,91.26,91.26,0,0,0,7.61-18.45c.94-3.24,1.73-6.59,2.38-10.08l20.24,5q-1,5.3-2.42,10.22a94.37,94.37,0,0,1-3.35,9.59,91.67,91.67,0,0,1-4.36,9.12,100.33,100.33,0,0,1-5.45,8.81c-.34.5-.81,1.13-1.36,1.84s-1.21,1.52-1.91,2.36-1.44,1.72-2.19,2.58S219.77,210.91,219.05,211.69Z"/></clipPath><clipPath id="clip-path-4"><path class="cls-1" d="M182.49,209.91l-2-.57-1-.28-2-.57-2-.56-1-.28-2-.57-1.95-.56-1-.28-1.94-.56-1.94-.55-1-.28-1.92-.56c.91.27,1.93.51,3,.73s2.15.4,3.23.56,2.14.27,3.12.34a24.79,24.79,0,0,0,2.62.09,5.74,5.74,0,0,0,.6,0l.51,0,.44-.08a2.31,2.31,0,0,0,.34-.1l.05,0a0,0,0,0,0,0,0l0,0-.09,0,19.68,5.63.09,0,0,0s0,0,0,0l-.05,0a2.14,2.14,0,0,1-.35.1l-.43.08c-.16,0-.34,0-.53.06l-.6,0c-.76,0-1.66,0-2.65-.09s-2.06-.2-3.15-.35-2.21-.35-3.28-.57S183.41,210.18,182.49,209.91Z"/></clipPath><clipPath id="clip-path-5"><path class="cls-1" d="M170.81,232.86l-19.37-5.94h0c.08,0,.15-.12.23-.37a9.05,9.05,0,0,0,.25-1.1c.09-.49.18-1.12.28-1.87s.22-1.65.35-2.68c.07-.55.16-1.16.25-1.79s.21-1.27.32-1.89.22-1.21.33-1.75.21-1,.31-1.39a25.23,25.23,0,0,1,.82-2.48c.36-1,.79-2,1.24-3s.92-2,1.36-2.86a19.52,19.52,0,0,1,1.17-2l19.47,5.62a18.7,18.7,0,0,0-1.19,2c-.44.86-.92,1.87-1.38,2.91s-.89,2.09-1.26,3.06-.65,1.85-.83,2.52c-.09.39-.2.87-.31,1.42s-.22,1.15-.33,1.77-.22,1.28-.32,1.91-.19,1.26-.26,1.82c-.13,1.05-.25,2-.35,2.72s-.2,1.39-.29,1.9a11.15,11.15,0,0,1-.25,1.11c-.08.25-.16.37-.23.37h0Z"/></clipPath><clipPath id="clip-path-6"><path class="cls-1" d="M185.52,209.92,166,204.31c-.42-.12-.83-.25-1.24-.39s-.83-.3-1.24-.47-.82-.34-1.24-.53-.84-.4-1.27-.61a27.24,27.24,0,0,1-3.63-2.24,20.49,20.49,0,0,1-3-2.67,20.88,20.88,0,0,1-2.4-3.2,27.44,27.44,0,0,1-2-3.87c-.14-.33-.27-.62-.39-.88s-.22-.46-.3-.63-.17-.3-.23-.39-.1-.14-.13-.15l19.37,5.41s.07.05.13.14.14.23.23.4.19.39.31.64.24.56.39.89a27.6,27.6,0,0,0,2,3.92,20.85,20.85,0,0,0,2.43,3.25,20.4,20.4,0,0,0,3,2.7,27.22,27.22,0,0,0,3.67,2.27c.43.22.86.42,1.28.62l1.26.54c.42.17.83.32,1.25.47S185.1,209.8,185.52,209.92Z"/></clipPath><clipPath id="clip-path-7"><path class="cls-1" d="M167.63,197.85l-2-.55-1-.28-1.95-.55-2-.55-1-.27-1.94-.55-1.93-.55-1-.27-1.93-.54-1.92-.54-1-.27-1.91-.54a7.64,7.64,0,0,1-.8-.29,5.34,5.34,0,0,1-.75-.39,5.45,5.45,0,0,1-.66-.45,4.15,4.15,0,0,1-.52-.5,5.38,5.38,0,0,1-1-1.78,5.83,5.83,0,0,1,0-4,5.73,5.73,0,0,1,1.06-1.79,6.11,6.11,0,0,0,.41-.51c.13-.16.24-.32.34-.47a3.26,3.26,0,0,0,.22-.38,1.15,1.15,0,0,0,.09-.26,1.38,1.38,0,0,0-.12-.36c-.07-.19-.17-.43-.31-.73s-.28-.62-.46-1-.37-.74-.58-1.12a22,22,0,0,1-1.17-2.53,7.59,7.59,0,0,1-.45-2.13,9,9,0,0,1,.25-2.36c.19-.89.49-1.92.89-3.2.24-.75.45-1.43.62-2.05s.31-1.17.42-1.69.19-1,.25-1.46a12.44,12.44,0,0,0,.1-1.35c0-.58,0-1,.07-1.41a4.76,4.76,0,0,1,.22-1.05,7.19,7.19,0,0,1,.51-1.07c.23-.4.53-.87.92-1.47,1.14-1.79,2.29-3.45,3.43-5s2.29-2.87,3.41-4.08a33.86,33.86,0,0,1,3.32-3.14,19.32,19.32,0,0,1,3.15-2.14,29.85,29.85,0,0,1,3.1-1.42,29,29,0,0,1,3.27-1.06,31.32,31.32,0,0,1,3.47-.72c1.2-.18,2.44-.31,3.73-.38l.61,0,.59,0,.56,0h1.84c.41,0,.81,0,1.2.07s.76.08,1.13.14.73.13,1.09.21l19.79,4.69c-.37-.09-.74-.16-1.11-.22s-.75-.11-1.14-.14-.8-.06-1.22-.07-.85,0-1.32,0h-.54l-.57,0-.59,0-.62,0c-1.3.07-2.56.21-3.77.39a35.35,35.35,0,0,0-3.52.73,30.31,30.31,0,0,0-3.3,1.08,28.57,28.57,0,0,0-3.13,1.45,19.8,19.8,0,0,0-3.2,2.16,34.85,34.85,0,0,0-3.35,3.19c-1.14,1.23-2.3,2.61-3.46,4.14s-2.32,3.22-3.48,5c-.39.61-.69,1.08-.93,1.49a6.81,6.81,0,0,0-.51,1.08,5,5,0,0,0-.22,1.06c-.05.4-.06.85-.08,1.44a13,13,0,0,1-.1,1.37c-.06.46-.14.95-.25,1.48s-.26,1.09-.43,1.72-.38,1.3-.62,2.07c-.42,1.3-.72,2.35-.92,3.25a9.57,9.57,0,0,0-.24,2.39,7.13,7.13,0,0,0,.45,2.16,21,21,0,0,0,1.19,2.56l.58,1.14.47,1c.13.29.24.54.31.73a1.67,1.67,0,0,1,.11.37.73.73,0,0,1-.08.26c-.06.11-.13.24-.23.39s-.21.31-.34.48-.27.34-.42.51a6,6,0,0,0-1.07,1.81,6.12,6.12,0,0,0-.37,2,6.06,6.06,0,0,0,.32,2,5.63,5.63,0,0,0,1,1.8,3.56,3.56,0,0,0,.52.5,6.65,6.65,0,0,0,.67.47c.24.14.5.27.76.39S167.36,197.77,167.63,197.85Z"/></clipPath><clipPath id="clip-path-8"><path class="cls-1" d="M153.33,187.07l-19.2-5.32.66.18.68.18.68.18.67.18.33.08.32.09.31.08.31.09,19.25,5.33-.31-.09-.32-.08-.33-.09-.33-.08-.68-.18-.69-.18-.68-.19Z"/></clipPath><clipPath id="clip-path-9"><path class="cls-1" d="M159.4,226l-19.24-5.86a1.73,1.73,0,0,0,.09-.69,1.59,1.59,0,0,0-.31-.74,9.6,9.6,0,0,0-1-1.16c-.46-.5-1.08-1.13-1.89-1.95-.46-.47-.91-.94-1.32-1.38s-.77-.85-1.08-1.21-.55-.67-.72-.91a1.26,1.26,0,0,1-.27-.49,1,1,0,0,1,.21-.42c.13-.19.32-.43.55-.7s.51-.56.82-.87.64-.64,1-1c.92-.85,1.61-1.5,2.12-2.05a4.64,4.64,0,0,0,1-1.5,2.91,2.91,0,0,0,.11-1.54,16.32,16.32,0,0,0-.57-2.19c-.25-.86-.66-2-1.16-3.36s-1.08-2.81-1.68-4.27-1.22-2.9-1.78-4.15-1.08-2.29-1.47-3L152,192c.4.7.91,1.76,1.48,3s1.2,2.72,1.8,4.2,1.2,3,1.7,4.33.92,2.54,1.18,3.4a16.64,16.64,0,0,1,.57,2.23,3.09,3.09,0,0,1-.11,1.56,4.66,4.66,0,0,1-1,1.51c-.51.57-1.21,1.23-2.14,2.09l-1,1c-.31.32-.59.62-.82.89a6.28,6.28,0,0,0-.56.71.92.92,0,0,0-.21.42c0,.08.09.25.26.5s.43.56.74.92.68.79,1.09,1.23.86.92,1.33,1.39c.82.84,1.44,1.47,1.91,2a9.58,9.58,0,0,1,1,1.18,1.55,1.55,0,0,1,.32.75A2,2,0,0,1,159.4,226Z"/></clipPath><clipPath id="clip-path-10"><path class="cls-1" d="M162.46,65.25l19.61,3.64a69.41,69.41,0,0,1,17.16,5.6,73.16,73.16,0,0,1,15.21,9.76A77.38,77.38,0,0,1,227.1,97.63a81.93,81.93,0,0,1,9.48,16.48c.8,1.86,1.54,3.78,2.21,5.74s1.29,4,1.83,6,1,4.09,1.41,6.16.72,4.14,1,6.2c.17,1.44.28,3.47.32,5.81s0,5,0,7.57-.19,5.22-.35,7.51-.38,4.25-.62,5.58l-20.24-5a54.9,54.9,0,0,0,.61-5.5c.16-2.25.28-4.82.35-7.4s.08-5.17,0-7.47-.15-4.31-.32-5.73q-.37-3.06-1-6.12c-.39-2-.86-4.07-1.39-6.07s-1.14-4-1.81-5.92-1.4-3.83-2.19-5.66A81.31,81.31,0,0,0,207,93.61a77,77,0,0,0-12.52-13.2,72.37,72.37,0,0,0-15.05-9.64A68.18,68.18,0,0,0,162.46,65.25Z"/></clipPath><clipPath id="clip-path-11"><path class="cls-1" d="M130.05,180.47l19.15,5.31-.28-.07-.26-.05-.24,0h-.21l-19.14-5.3h.2l.24,0,.26.05Z"/></clipPath><clipPath id="clip-path-12"><path class="cls-1" d="M152,192l-19.18-5.39c-.14-.25-.33-.54-.53-.87l-.64-1-.69-1.07c-.23-.35-.44-.68-.64-1s-.38-.58-.55-.85-.3-.51-.41-.72a4.51,4.51,0,0,1-.25-.53c-.05-.14-.07-.23,0-.25l19.14,5.3s0,.12,0,.26.14.31.25.53.26.47.42.74.35.56.55.86.42.63.65,1,.46.72.69,1.09.46.72.66,1.05Z"/></clipPath><clipPath id="clip-path-13"><path class="cls-1" d="M164.27,121.36,144.9,117c.19,0,.43.09.7.14s.56.11.89.17l1,.17,1.14.18,2.63.38,2.07.31,1.55.26c.44.08.8.15,1.09.22l19.5,4.41c-.29-.07-.66-.14-1.1-.22s-1-.17-1.57-.26l-2.1-.32-2.66-.38-1.16-.18-1.05-.18-.91-.16Z"/></clipPath><clipPath id="clip-path-14"><path class="cls-1" d="M151.87,101.82,171.33,106h0l-.54.2-1.38.54-2,.8-2.42,1-2.53,1c-.73.27-1.34.49-1.86.65a10.53,10.53,0,0,1-1.34.34,3.7,3.7,0,0,1-1,0L139,106.31a3.57,3.57,0,0,0,1,0,11.88,11.88,0,0,0,1.33-.34c.52-.16,1.12-.37,1.83-.64s1.54-.6,2.5-1l2.4-1,2-.8,1.36-.53.54-.19h0Z"/></clipPath><clipPath id="clip-path-15"><path class="cls-1" d="M128.31,219.79,109.43,214c.18-.2.36-.4.51-.59s.28-.38.39-.55a2.53,2.53,0,0,0,.24-.45.56.56,0,0,0,0-.29l18.9,5.77a.47.47,0,0,1,0,.29,2.57,2.57,0,0,1-.24.46,6.77,6.77,0,0,1-.4.56C128.68,219.38,128.5,219.59,128.31,219.79Z"/></clipPath><clipPath id="clip-path-16"><path class="cls-1" d="M127.46,220.63l-18.87-5.81h0s0,0,.09-.06a1,1,0,0,0,.18-.15l.25-.26.32-.36,18.88,5.8-.32.36a3.17,3.17,0,0,1-.26.26,1.16,1.16,0,0,1-.17.16s-.07.06-.09.06h0Z"/></clipPath><clipPath id="clip-path-17"><path class="cls-1" d="M111.65,184.32l18.93,5.37s.06.06,0,.15a1.35,1.35,0,0,1-.06.34,5,5,0,0,1-.17.5c-.07.19-.15.39-.25.6l-18.93-5.39c.1-.21.18-.41.25-.6s.13-.35.17-.49a2,2,0,0,0,.06-.34C111.7,184.38,111.69,184.33,111.65,184.32Z"/></clipPath><clipPath id="clip-path-18"><path class="cls-1" d="M129.51,217.88l-18.9-5.77a1.83,1.83,0,0,0-.28-.4c-.16-.19-.39-.44-.67-.73s-.61-.61-1-1-.75-.73-1.16-1.11l-1.17-1.11-1-1-.73-.78a3,3,0,0,1-.34-.45,8.36,8.36,0,0,1,.56-2.58c.44-1.44,1.07-3.35,1.8-5.42s1.55-4.29,2.35-6.34,1.58-3.94,2.23-5.34l18.93,5.39c-.66,1.42-1.45,3.34-2.27,5.42s-1.64,4.34-2.38,6.44-1.38,4-1.82,5.5a8.76,8.76,0,0,0-.57,2.61,2.57,2.57,0,0,0,.35.46c.18.21.44.48.73.79l1,1,1.18,1.13c.42.38.82.76,1.18,1.12s.7.68,1,1,.51.54.68.74A1.61,1.61,0,0,1,129.51,217.88Z"/></clipPath><clipPath id="clip-path-19"><path class="cls-1" d="M144.37,102.55l-19.15-4.14a27.43,27.43,0,0,1,2-2.12c.76-.75,1.62-1.52,2.51-2.27s1.83-1.48,2.75-2.14,1.81-1.26,2.63-1.75l19.27,4c-.83.49-1.74,1.09-2.67,1.77s-1.87,1.41-2.77,2.17-1.77,1.55-2.55,2.31A26.1,26.1,0,0,0,144.37,102.55Z"/></clipPath><clipPath id="clip-path-20"><path class="cls-1" d="M142.62,104.42l-19.13-4.16h0s.11-.06.22-.15a5,5,0,0,0,.4-.4c.16-.16.34-.36.53-.58s.38-.47.57-.72l19.15,4.14c-.19.26-.39.5-.58.72s-.37.43-.53.6a4.83,4.83,0,0,1-.41.4.56.56,0,0,1-.22.15h0Z"/></clipPath><clipPath id="clip-path-21"><path class="cls-1" d="M109.5,217.59l-18.67-5.78h0s.16-.23.33-.68.4-1.15.69-2.09.65-2.12,1.07-3.57.92-3.15,1.49-5.13c.41-1.47.83-2.94,1.23-4.33l1.12-3.88.89-3,.53-1.74L117,192.79c-.1.33-.29.94-.53,1.77s-.56,1.87-.91,3.06-.73,2.53-1.14,3.94L113.14,206q-.87,3-1.51,5.21c-.43,1.47-.79,2.67-1.09,3.62s-.53,1.65-.7,2.12-.28.68-.34.69Z"/></clipPath><clipPath id="clip-path-22"><path class="cls-1" d="M100.05,147.27l18.81,4.85s.08.09.12.23.08.33.13.58.08.52.12.84.07.67.09,1a50.91,50.91,0,0,0,.87,6.6,63.14,63.14,0,0,0,1.65,6.54,44,44,0,0,0,2.16,5.61,16,16,0,0,0,2.39,3.8,7.12,7.12,0,0,0,.78.73c.31.25.66.52,1,.78s.79.53,1.22.77.85.49,1.28.7l-18.93-5.25a14.34,14.34,0,0,1-1.28-.68c-.41-.24-.82-.5-1.2-.76s-.72-.52-1-.78a6.94,6.94,0,0,1-.77-.71,15.41,15.41,0,0,1-2.36-3.75,43.25,43.25,0,0,1-2.14-5.53,61,61,0,0,1-1.64-6.46,50.91,50.91,0,0,1-.86-6.5c0-.36-.06-.7-.09-1s-.08-.6-.12-.84-.09-.43-.13-.57S100.08,147.28,100.05,147.27Z"/></clipPath><clipPath id="clip-path-23"><path class="cls-1" d="M100.92,167.5l18.82,5.14a.68.68,0,0,1,.35.29,2.6,2.6,0,0,1,.26.67,9.13,9.13,0,0,1,.18,1.09c0,.43.09.95.13,1.54,0,.44,0,.85.09,1.24s.07.73.11,1a6,6,0,0,0,.13.72c.05.18.09.28.14.31l-18.82-5.24s-.1-.13-.15-.3-.08-.42-.13-.72-.07-.63-.11-1-.06-.79-.09-1.22c0-.59-.07-1.09-.12-1.52a8.72,8.72,0,0,0-.18-1.07,2.37,2.37,0,0,0-.26-.66A.6.6,0,0,0,100.92,167.5Z"/></clipPath><clipPath id="clip-path-24"><path class="cls-1" d="M128,108l-19-4.23h.07c.22,0,.52-.43.84-1.16a26.19,26.19,0,0,0,1-3c.35-1.21.7-2.59,1-4s.57-2.91.75-4.32c.07-.5.13-1,.2-1.41s.13-.82.2-1.15.12-.6.17-.79.1-.29.13-.29h0l19,4h0s-.08.11-.13.3a6.93,6.93,0,0,0-.18.79c-.07.34-.13.74-.2,1.18s-.14.92-.2,1.42c-.19,1.43-.46,2.93-.77,4.39s-.66,2.86-1,4.08a25.41,25.41,0,0,1-1.05,3c-.32.75-.62,1.18-.85,1.19H128Z"/></clipPath><clipPath id="clip-path-25"><path class="cls-1" d="M112.47,173.24l-18.73-5.15,0,0h0s0,0,0,0a1.48,1.48,0,0,1,0-.48c0-.26.1-.63.18-1.06s.2-.93.33-1.47.28-1.14.44-1.75.33-1.27.46-1.82.23-1,.3-1.46.12-.75.14-1a.78.78,0,0,0,0-.44,1.55,1.55,0,0,0-.44-.23c-.25-.11-.59-.24-1-.39l-1.37-.49L91,156.91l-1.64-.54c-.52-.18-1-.36-1.41-.52s-.78-.32-1-.44a2.07,2.07,0,0,1-.52-.29l18.65,5a3,3,0,0,0,.52.29l1.05.44,1.43.53,1.66.54,1.65.54,1.39.5c.41.15.75.28,1,.39a1.92,1.92,0,0,1,.45.24.83.83,0,0,1,0,.45,7.41,7.41,0,0,1-.14,1c-.07.42-.18.92-.31,1.48s-.28,1.18-.46,1.85-.31,1.21-.44,1.77-.25,1.06-.33,1.5-.16.8-.2,1.07a1.67,1.67,0,0,0,0,.48v0h0l0,0Z"/></clipPath><clipPath id="clip-path-26"><path class="cls-1" d="M105.08,160.1l-18.65-5a.37.37,0,0,1-.09-.4,2.67,2.67,0,0,1,.44-.76c.26-.34.63-.77,1.14-1.35s1.18-1.29,2-2.19l18.69,4.91c-.84.9-1.51,1.63-2,2.22s-.9,1-1.15,1.37a2.55,2.55,0,0,0-.45.77A.39.39,0,0,0,105.08,160.1Z"/></clipPath><clipPath id="clip-path-27"><path class="cls-1" d="M98.48,99.65l18.83,4.17-.5-.1-.45-.08-.39,0a2,2,0,0,0-.34,0,.17.17,0,0,0-.19.14,1,1,0,0,0,0,.48,8.16,8.16,0,0,0,.31.89c.15.38.34.85.58,1.4.37.85.73,1.81,1,2.8s.61,2,.85,3a27.66,27.66,0,0,1,.54,2.72,8.62,8.62,0,0,1,.1,1.93l-18.84-4.36a8.37,8.37,0,0,0-.1-1.9c-.11-.79-.3-1.71-.53-2.68s-.53-2-.85-3-.67-1.93-1-2.75c-.24-.56-.43-1-.58-1.39a7.69,7.69,0,0,1-.3-.88,1,1,0,0,1-.05-.47.17.17,0,0,1,.19-.14h.34l.39,0,.44.08Z"/></clipPath><clipPath id="clip-path-28"><path class="cls-1" d="M84.57,139.37l18.64,4.75c.52.13,1,.26,1.39.39s.78.25,1.11.38a7.77,7.77,0,0,1,.91.39c.28.14.53.28.78.43.45.29.9.61,1.34.95s.87.72,1.28,1.09.77.76,1.1,1.14A8.66,8.66,0,0,1,112,150l-18.73-4.83a10.68,10.68,0,0,0-.84-1.09c-.33-.38-.7-.75-1.1-1.13s-.82-.73-1.26-1.07-.88-.65-1.33-.94a7.85,7.85,0,0,0-.76-.42,8.39,8.39,0,0,0-.9-.39c-.33-.13-.7-.25-1.1-.38S85.08,139.5,84.57,139.37Z"/></clipPath><clipPath id="clip-path-29"><path class="cls-1" d="M99.87,143l-18.6-4.74a3.58,3.58,0,0,1,.48-.46l1.22-1,1.76-1.38c.66-.51,1.38-1.06,2.13-1.62.92-.7,1.73-1.32,2.42-1.87s1.27-1,1.73-1.44a13.48,13.48,0,0,0,1-1,1.48,1.48,0,0,0,.38-.59l18.74,4.59a1.5,1.5,0,0,1-.39.6,11.94,11.94,0,0,1-1.06,1c-.47.41-1,.9-1.75,1.45s-1.52,1.2-2.45,1.9c-.76.57-1.49,1.13-2.16,1.65s-1.27,1-1.78,1.41-.93.75-1.23,1A2.68,2.68,0,0,0,99.87,143Z"/></clipPath><clipPath id="clip-path-30"><path class="cls-1" d="M100.74,143.55,82.13,138.8a1.89,1.89,0,0,1-.38-.12,1.77,1.77,0,0,1-.28-.15.55.55,0,0,1-.17-.17.14.14,0,0,1,0-.15L99.87,143a.15.15,0,0,0,0,.15.53.53,0,0,0,.17.16,1.11,1.11,0,0,0,.29.16A2.8,2.8,0,0,0,100.74,143.55Z"/></clipPath><clipPath id="clip-path-31"><path class="cls-1" d="M111.18,133.43l-18.74-4.59a3.11,3.11,0,0,0-.32-1.52A15.3,15.3,0,0,0,91,125.09c-.51-.83-1.13-1.73-1.84-2.67s-1.51-1.89-2.37-2.83c-.46-.51-.89-1-1.29-1.46s-.75-.86-1-1.22-.55-.65-.72-.87a1.64,1.64,0,0,1-.26-.39c0-.05.27-.11.82-.2s1.36-.19,2.47-.32,2.5-.28,4.18-.45l5.93-.58,18.8,4.38-6,.59-4.23.46c-1.12.13-2,.24-2.5.33s-.83.15-.83.2a1.47,1.47,0,0,0,.26.4c.17.22.42.52.72.88l1.07,1.24c.4.46.84,1,1.31,1.47.86,1,1.67,1.93,2.39,2.88a31.8,31.8,0,0,1,1.87,2.71,16.12,16.12,0,0,1,1.18,2.26A3.27,3.27,0,0,1,111.18,133.43Z"/></clipPath><clipPath id="clip-path-32"><path class="cls-1" d="M136.16,248.14l-19-6.19q-3-1-5.83-2.14c-1.91-.78-3.81-1.63-5.66-2.56s-3.69-1.92-5.48-3-3.53-2.2-5.23-3.39a86.38,86.38,0,0,1-9.12-7.42,89,89,0,0,1-8.09-8.6,90.58,90.58,0,0,1-6.91-9.61,88.36,88.36,0,0,1-5.58-10.42,108.06,108.06,0,0,1-4.17-10.67,92.38,92.38,0,0,1-2.83-10.61,94.11,94.11,0,0,1-1.55-10.92A113.27,113.27,0,0,1,56.4,151c0-2.23.11-4.28.23-6.23s.29-3.79.52-5.61.51-3.6.87-5.43.77-3.71,1.26-5.7a112.32,112.32,0,0,1,4.23-13.39,104.82,104.82,0,0,1,5.78-12.42A102,102,0,0,1,76.6,90.79a103.33,103.33,0,0,1,8.83-10.42A97.33,97.33,0,0,1,97.15,70a91.71,91.71,0,0,1,12.91-8.1,90.73,90.73,0,0,1,14-5.78,93.59,93.59,0,0,1,15-3.44c.73-.11,1.49-.2,2.27-.28s1.57-.15,2.38-.21,1.64-.1,2.48-.13,1.69,0,2.55-.05c1.34,0,2.71,0,4.08.08s2.76.14,4.13.26,2.75.26,4.1.43,2.68.38,4,.61l19.65,3.47c-1.31-.23-2.66-.43-4-.61s-2.75-.32-4.14-.44-2.79-.2-4.18-.26-2.78-.08-4.14-.07c-.87,0-1.73,0-2.58.05s-1.68.07-2.5.13-1.63.12-2.41.21-1.56.18-2.3.29a94.78,94.78,0,0,0-15.17,3.49,92,92,0,0,0-14.18,5.87A93.2,93.2,0,0,0,116,73.74a99.21,99.21,0,0,0-11.87,10.53,106.46,106.46,0,0,0-8.94,10.58,103.09,103.09,0,0,0-7.4,11.6,104.79,104.79,0,0,0-5.86,12.6,113.68,113.68,0,0,0-4.29,13.58c-.5,2-.93,3.92-1.28,5.78s-.65,3.67-.88,5.52-.41,3.71-.53,5.69-.2,4-.24,6.31a113.61,113.61,0,0,0,.35,11.8,93.58,93.58,0,0,0,4.41,21.83,112.59,112.59,0,0,0,4.22,10.82A90.4,90.4,0,0,0,96.3,220.7a89.85,89.85,0,0,0,8.18,8.71,88.22,88.22,0,0,0,9.22,7.52q2.58,1.81,5.3,3.43c1.8,1.08,3.65,2.08,5.53,3s3.8,1.8,5.74,2.6S134.17,247.49,136.16,248.14Z"/></clipPath></defs><g id="Capa_2" data-name="Capa 2"><g id="Capa_1-2" data-name="Capa 1"><g class="cls-2"><g class="cls-2"><g class="cls-3"><g class="cls-2"><path class="cls-4" d="M164.45,2.89,144.28,0c1.61,0,3.21,0,4.81.06s3.18.12,4.76.23,3.15.24,4.71.4,3.11.36,4.66.57l20.38,2.9c-1.56-.22-3.13-.42-4.7-.58s-3.17-.3-4.77-.41-3.2-.18-4.81-.23-3.24-.06-4.87,0"/></g></g></g><g class="cls-2"><g class="cls-5"><g class="cls-2"><path class="cls-6" d="M108.77,301.4l-19.34-7.08a128.27,128.27,0,0,1-36.16-20.49A137.46,137.46,0,0,1,24.8,242.47,147.66,147.66,0,0,1,6.28,202.32,159.64,159.64,0,0,1,0,155.64a166.89,166.89,0,0,1,1.64-21.33A164.82,164.82,0,0,1,21.47,76.07l18.68,4a166.52,166.52,0,0,0-9,18.5,168.58,168.58,0,0,0-6.77,19.77,169.12,169.12,0,0,0-6,42.46,162,162,0,0,0,6.32,47.35,149.49,149.49,0,0,0,18.71,40.7A138.68,138.68,0,0,0,72.2,280.66a129.34,129.34,0,0,0,36.57,20.74"/><path class="cls-7" d="M40.15,80.1l-18.68-4q2.27-4,4.74-7.82c1.64-2.56,3.36-5.06,5.13-7.51s3.62-4.83,5.53-7.15S40.73,49,42.75,46.8l19,3.6q-3.08,3.35-6,6.89t-5.59,7.26q-2.7,3.72-5.2,7.61t-4.8,7.94"/><path class="cls-8" d="M61.71,50.4l-19-3.6c1.9-2.07,3.86-4.09,5.86-6s4-3.85,6.14-5.69,4.23-3.6,6.41-5.31,4.41-3.35,6.67-4.93L87.1,28.1q-3.45,2.4-6.76,5T73.85,38.5q-3.18,2.79-6.22,5.77T61.71,50.4"/><path class="cls-9" d="M87.1,28.1,67.83,24.83q4-2.79,8.19-5.3t8.5-4.72C87.4,13.34,90.33,12,93.3,10.7s6-2.43,9-3.48l19.68,3q-4.63,1.6-9.15,3.54c-3,1.28-6,2.68-8.88,4.17S98.2,21,95.38,22.72,89.8,26.21,87.1,28.1"/><path class="cls-4" d="M122,10.22l-19.68-3q5-1.72,10.15-3.06t10.4-2.24c3.5-.6,7-1.07,10.6-1.39S140.66,0,144.28,0l20.17,2.89q-5.49,0-10.91.53T142.81,4.85q-5.31.92-10.52,2.27T122,10.22"/></g></g></g><path class="cls-10" d="M164.45,2.89a126.84,126.84,0,0,1,54.32,11.63A132.51,132.51,0,0,1,262,46.73a146,146,0,0,1,28.24,47.64,160.79,160.79,0,0,1,9.37,58.33,168.68,168.68,0,0,1-11.92,58.72,164.71,164.71,0,0,1-30.13,48.81,151,151,0,0,1-44.23,34.2A135.06,135.06,0,0,1,159.06,309a127.15,127.15,0,0,1-54.69-9.26,131.53,131.53,0,0,1-45-30.78A144.86,144.86,0,0,1,29.05,221a160,160,0,0,1-10.67-60.2,168.61,168.61,0,0,1,12.28-61.1A164.23,164.23,0,0,1,62.54,49.5a149.76,149.76,0,0,1,46.33-33.95A133.8,133.8,0,0,1,164.45,2.89Z"/></g><ellipse class="cls-11" cx="157.15" cy="154.57" rx="127.08" ry="116.02" transform="translate(-23.53 280.83) rotate(-79.47)"/><path class="cls-12" d="M273.51,146.82C271.68,77,218.11,23.8,153.84,28.08l-2.55.21c56.5,5.14,101.1,54.91,102.76,118.53,1.8,68.93-47.45,128.36-110.5,134a108.22,108.22,0,0,0,16.91.2C224.73,276.78,275.34,216.68,273.51,146.82Z"/><g class="cls-2"><g class="cls-2"><g class="cls-13"><g class="cls-2"><path class="cls-14" d="M219.05,211.69l-19.93-5.61c.7-.77,1.45-1.61,2.19-2.46s1.47-1.71,2.16-2.54,1.33-1.62,1.88-2.32,1-1.33,1.34-1.82l.91-1.32c.29-.44.59-.89.87-1.33s.57-.89.85-1.33l.82-1.34,20.08,5.4c-.27.46-.55.91-.83,1.36l-.86,1.35c-.29.45-.59.9-.89,1.35s-.6.9-.91,1.34-.81,1.13-1.36,1.84-1.21,1.52-1.91,2.36-1.44,1.72-2.19,2.58-1.5,1.71-2.22,2.49"/><path class="cls-15" d="M230.22,197l-20.08-5.4q2.22-3.68,4.06-7.47c1.22-2.53,2.32-5.1,3.31-7.74s1.85-5.33,2.6-8.1,1.41-5.63,2-8.58l20.24,5c-.56,3-1.22,5.88-2,8.69s-1.65,5.55-2.64,8.23-2.12,5.28-3.36,7.85-2.6,5.08-4.1,7.57"/></g></g></g><polygon class="cls-16" points="214.11 223.03 194.24 217.25 194.1 214.47 213.98 220.21 214.11 223.03"/><polygon class="cls-17" points="213.85 217.34 193.97 211.65 199.12 206.08 219.05 211.69 213.85 217.34"/><polygon class="cls-16" points="213.98 220.21 194.1 214.47 193.97 211.65 213.85 217.34 213.98 220.21"/><g class="cls-2"><g class="cls-18"><g class="cls-2"><path class="cls-19" d="M182.49,209.91,163,204.29c.91.27,1.93.51,3,.73s2.15.4,3.23.56,2.14.27,3.12.34a24.79,24.79,0,0,0,2.62.09l.53,0,.47,0,.4-.07a2.44,2.44,0,0,0,.34-.08l19.68,5.63-.34.08-.41.07-.47,0-.54,0c-.76,0-1.66,0-2.65-.09s-2.06-.2-3.15-.35-2.21-.35-3.28-.57-2.1-.46-3-.73"/><path class="cls-20" d="M196.35,211.43l-19.68-5.63h.08l0,0h.07l19.68,5.63h-.1l0,0h0"/><polyline class="cls-21" points="196.53 211.36 176.85 205.73 176.85 205.73 176.86 205.73 176.86 205.72 176.87 205.72 196.55 211.35 196.55 211.35 196.54 211.35 196.54 211.36 196.53 211.36"/><polyline class="cls-14" points="196.55 211.35 176.87 205.72 176.87 205.72 176.87 205.72 176.87 205.71 176.87 205.71 196.56 211.34 196.56 211.34 196.55 211.34 196.55 211.35 196.55 211.35"/><path class="cls-15" d="M196.56,211.34l-19.69-5.63s0,0,0,0l0,0,0,0-.06,0,19.68,5.63.07,0,0,0,0,0v0"/></g></g></g><polygon class="cls-22" points="177.84 209.31 158.37 203.69 158.97 202.84 178.45 208.44 177.84 209.31"/><g class="cls-2"><g class="cls-23"><g class="cls-2"><polyline class="cls-19" points="170.81 232.86 151.44 226.91 151.45 226.92 151.45 226.92 151.46 226.92 151.47 226.92 151.47 226.92 151.47 226.92 151.47 226.92 151.48 226.92 170.85 232.86 170.85 232.86 170.84 232.86 170.84 232.86 170.84 232.86 170.83 232.86 170.82 232.86 170.82 232.86 170.81 232.86"/><polyline class="cls-20" points="170.85 232.86 151.48 226.92 151.49 226.91 151.49 226.91 151.5 226.91 151.51 226.9 170.88 232.85 170.87 232.85 170.87 232.86 170.86 232.86 170.85 232.86"/><polyline class="cls-21" points="170.88 232.85 151.51 226.9 151.52 226.9 151.52 226.89 151.53 226.88 151.54 226.88 170.91 232.82 170.9 232.83 170.9 232.84 170.89 232.84 170.88 232.85"/><path class="cls-14" d="M170.91,232.82l-19.37-5.94v0h0v0L171,232.76v0h0v0h0"/><path class="cls-15" d="M171,232.76l-19.38-5.95a2.54,2.54,0,0,0,.21-.61c.07-.29.14-.68.22-1.17s.16-1.07.26-1.76.19-1.48.3-2.37c.07-.55.16-1.16.25-1.79s.21-1.27.32-1.89.22-1.21.33-1.75.21-1,.31-1.39a21.3,21.3,0,0,1,.72-2.22c.31-.85.69-1.78,1.09-2.71s.82-1.85,1.23-2.69.81-1.58,1.15-2.15l19.47,5.62c-.35.58-.75,1.34-1.17,2.18s-.85,1.79-1.25,2.73-.79,1.89-1.11,2.75-.57,1.64-.73,2.25c-.09.39-.2.87-.31,1.42s-.22,1.15-.33,1.77-.22,1.28-.32,1.91-.19,1.26-.26,1.82c-.11.91-.22,1.71-.31,2.4s-.18,1.29-.26,1.79-.16.89-.23,1.19a2.78,2.78,0,0,1-.2.62"/><path class="cls-14" d="M177.44,209.93,158,204.31c0-.06.07-.12.11-.17s.07-.11.1-.16l.1-.15.09-.14,19.47,5.62-.09.13-.1.15-.11.17-.1.17"/></g></g></g><g class="cls-2"><g class="cls-24"><g class="cls-2"><path class="cls-15" d="M185.52,209.92,166,204.31c-.42-.12-.83-.25-1.24-.39s-.83-.3-1.24-.47-.82-.34-1.24-.53-.84-.4-1.27-.61a27.24,27.24,0,0,1-3.63-2.24,20.49,20.49,0,0,1-3-2.67,20.88,20.88,0,0,1-2.4-3.2,27.44,27.44,0,0,1-2-3.87c-.14-.33-.27-.62-.39-.88s-.22-.46-.3-.63-.17-.3-.23-.39-.1-.14-.13-.15l19.37,5.41s.07.05.13.14.14.23.23.4.19.39.31.64.24.56.39.89a27.6,27.6,0,0,0,2,3.92,20.85,20.85,0,0,0,2.43,3.25,20.4,20.4,0,0,0,3,2.7,27.22,27.22,0,0,0,3.67,2.27c.43.22.86.42,1.28.62l1.26.54c.42.17.83.32,1.25.47s.83.27,1.25.39"/></g></g></g><polygon class="cls-25" points="159.06 227.15 139.82 221.28 140.16 220.16 159.4 226.02 159.06 227.15"/><g class="cls-2"><g class="cls-26"><g class="cls-2"><path class="cls-15" d="M167.63,197.85l-19.36-5.46a7.64,7.64,0,0,1-.8-.29,5.34,5.34,0,0,1-.75-.39,5.45,5.45,0,0,1-.66-.45,4.15,4.15,0,0,1-.52-.5,5.55,5.55,0,0,1-.94-1.56,5.85,5.85,0,0,1-.39-1.74A6,6,0,0,1,145,184l19.33,5.34a6,6,0,0,0-.7,1.7,6.16,6.16,0,0,0-.15,1.81,5.69,5.69,0,0,0,.4,1.77,5.45,5.45,0,0,0,1,1.58,3.56,3.56,0,0,0,.52.5,6.65,6.65,0,0,0,.67.47c.24.14.5.27.76.39s.54.21.81.29"/><path class="cls-14" d="M164.37,189.34,145,184a2.39,2.39,0,0,0,.13-.21l.14-.2.15-.19a1.46,1.46,0,0,1,.16-.19l.25-.3c.08-.09.15-.19.22-.28l.2-.28.16-.25,19.34,5.32a2.56,2.56,0,0,1-.16.25l-.2.28c-.07.1-.15.19-.23.29l-.25.3-.16.19-.15.2-.14.2-.13.21"/><path class="cls-15" d="M165.79,187.42l-19.34-5.32a.89.89,0,0,0,.09-.16.61.61,0,0,0,.07-.14l0-.12s0-.06,0-.09a1.38,1.38,0,0,0-.12-.36c-.07-.19-.17-.43-.31-.73s-.28-.62-.46-1-.37-.74-.58-1.12a22,22,0,0,1-1.17-2.53,7.59,7.59,0,0,1-.45-2.13,9,9,0,0,1,.25-2.36c.19-.89.49-1.92.89-3.2.24-.75.45-1.43.62-2.05s.31-1.17.42-1.69.19-1,.25-1.46a12.44,12.44,0,0,0,.1-1.35c0-.47,0-.86,0-1.2a5.86,5.86,0,0,1,.14-.9,4,4,0,0,1,.29-.82,9.59,9.59,0,0,1,.52-1l19.37,5a10,10,0,0,0-.53,1,4.61,4.61,0,0,0-.3.83,5.81,5.81,0,0,0-.14.91c0,.35,0,.74-.05,1.22a13,13,0,0,1-.1,1.37c-.06.46-.14.95-.25,1.48s-.26,1.09-.43,1.72-.38,1.3-.62,2.07c-.42,1.3-.72,2.35-.92,3.25a9.57,9.57,0,0,0-.24,2.39,7.13,7.13,0,0,0,.45,2.16,21,21,0,0,0,1.19,2.56l.58,1.14.47,1c.13.29.24.54.31.73a1.67,1.67,0,0,1,.11.37.51.51,0,0,1,0,.09l0,.12-.07.14-.1.17"/><path class="cls-14" d="M166.49,162.73l-19.37-5,.16-.25c.05-.09.11-.18.17-.27l.18-.29.21-.32c.62-1,1.24-1.91,1.87-2.81s1.25-1.75,1.88-2.56,1.24-1.57,1.86-2.29,1.24-1.4,1.85-2l19.47,4.81c-.62.63-1.25,1.32-1.87,2.05s-1.26,1.51-1.89,2.33-1.27,1.69-1.9,2.6-1.27,1.86-1.9,2.85l-.2.32-.19.29-.17.28c-.06.08-.11.17-.16.25"/><path class="cls-21" d="M174.77,151.76,155.3,147c.39-.41.78-.79,1.17-1.16s.77-.7,1.15-1,.76-.62,1.14-.9.74-.55,1.11-.79l19.53,4.76c-.38.24-.75.5-1.13.79s-.76.59-1.15.92-.78.68-1.17,1.05-.79.76-1.18,1.17"/><path class="cls-20" d="M179.4,147.83l-19.53-4.76.32-.2.33-.2.32-.18.31-.18c.42-.22.85-.43,1.28-.63s.86-.4,1.3-.58.87-.35,1.32-.51.9-.31,1.36-.45l19.6,4.71c-.46.14-.92.29-1.37.46s-.9.33-1.34.51-.88.38-1.32.59-.86.42-1.28.65l-.33.17-.32.19-.33.2-.32.21"/><path class="cls-19" d="M186,144.85l-19.6-4.71c.64-.19,1.29-.37,2-.52s1.34-.3,2-.41,1.4-.22,2.12-.3,1.45-.14,2.2-.18l.61,0,.59,0,.56,0h1.84c.41,0,.81,0,1.2.07s.76.08,1.13.14.73.13,1.09.21l19.79,4.69c-.37-.09-.74-.16-1.11-.22s-.75-.11-1.14-.14-.8-.06-1.22-.07-.85,0-1.32,0h-.54l-.57,0-.59,0-.62,0c-.76,0-1.5.11-2.23.19s-1.44.18-2.14.3-1.38.26-2.05.42-1.34.33-2,.53"/></g></g></g><g class="cls-2"><g class="cls-27"><g class="cls-2"><path class="cls-19" d="M153.33,187.07l-19.2-5.32.66.18.68.18.68.18.67.18.33.08.32.09.31.08.31.09,19.25,5.33-.31-.09-.32-.08-.33-.09-.33-.08-.68-.18-.69-.18-.68-.19-.67-.18"/></g></g></g><g class="cls-2"><g class="cls-28"><g class="cls-2"><path class="cls-15" d="M159.4,226l-19.24-5.86a1.73,1.73,0,0,0,.09-.69,1.59,1.59,0,0,0-.31-.74,9.6,9.6,0,0,0-1-1.16c-.46-.5-1.08-1.13-1.89-1.95-.46-.47-.91-.94-1.32-1.38s-.77-.85-1.08-1.21-.55-.67-.72-.91a1.26,1.26,0,0,1-.27-.49.09.09,0,0,1,0,0s0-.05,0-.07a.59.59,0,0,0,0-.08.36.36,0,0,0,.05-.09L153,217.08l-.05.09a.59.59,0,0,0,0,.08l0,.07v.05c0,.08.09.25.26.5s.43.56.74.92.68.79,1.09,1.23.86.92,1.33,1.39c.82.84,1.44,1.47,1.91,2a9.58,9.58,0,0,1,1,1.18,1.55,1.55,0,0,1,.32.75,2,2,0,0,1-.1.7"/><path class="cls-14" d="M153,217.08l-19.18-5.74.21-.3a4.73,4.73,0,0,1,.31-.38c.12-.14.24-.29.38-.44l.45-.48,19.2,5.72-.46.48-.39.45-.31.38a2.85,2.85,0,0,0-.21.31"/><path class="cls-21" d="M154.36,215.46l-19.2-5.72.26-.26.27-.26L136,209l.28-.27.54-.5.48-.45.43-.41.38-.38,19.23,5.67-.39.39-.43.42-.49.46-.54.5-.29.27-.28.28-.28.27-.25.26"/><path class="cls-14" d="M157.31,212.61l-19.23-5.67.32-.35.28-.32c.09-.1.16-.21.24-.3s.13-.2.19-.3l19.24,5.66-.19.29-.24.31a4.28,4.28,0,0,1-.29.33l-.32.35"/><path class="cls-15" d="M158.35,211.33l-19.24-5.66a2.62,2.62,0,0,0,.41-1.75,7.62,7.62,0,0,0-.2-1.1c-.1-.42-.24-.88-.41-1.42-.25-.86-.66-2-1.16-3.36s-1.08-2.81-1.68-4.27-1.22-2.9-1.78-4.15-1.08-2.29-1.47-3L152,192c.4.7.91,1.76,1.48,3s1.2,2.72,1.8,4.2,1.2,3,1.7,4.33.92,2.54,1.18,3.4c.16.55.3,1,.41,1.44a7.85,7.85,0,0,1,.2,1.12,3.08,3.08,0,0,1-.06.92,2.63,2.63,0,0,1-.36.86"/></g></g></g><g class="cls-2"><g class="cls-29"><g class="cls-2"><path class="cls-15" d="M242.31,164.68l-20.24-5a54.9,54.9,0,0,0,.61-5.5c.16-2.25.28-4.82.35-7.4s.08-5.17,0-7.47-.15-4.31-.32-5.73q-.37-3.06-1-6.12c-.39-2-.86-4.07-1.39-6.07s-1.14-4-1.81-5.92-1.4-3.83-2.19-5.66A81.31,81.31,0,0,0,207,93.61a77,77,0,0,0-12.52-13.2,72.37,72.37,0,0,0-15.05-9.64,68.18,68.18,0,0,0-17-5.52l19.61,3.64a69.41,69.41,0,0,1,17.16,5.6,73.16,73.16,0,0,1,15.21,9.76A77.38,77.38,0,0,1,227.1,97.63a81.93,81.93,0,0,1,9.48,16.48c.8,1.86,1.54,3.78,2.21,5.74s1.29,4,1.83,6,1,4.09,1.41,6.16.72,4.14,1,6.2c.17,1.44.28,3.47.32,5.81s0,5,0,7.57-.19,5.22-.35,7.51-.38,4.25-.62,5.58"/></g></g></g><g class="cls-2"><g class="cls-30"><g class="cls-2"><path class="cls-19" d="M148.21,185.64l-19.14-5.3h.2l.24,0,.26.05.28.07,19.15,5.31-.28-.07-.26-.05-.24,0h-.21"/></g></g></g><g class="cls-2"><g class="cls-31"><g class="cls-2"><path class="cls-15" d="M152,192l-19.18-5.39c-.14-.25-.33-.54-.53-.87l-.64-1-.69-1.07c-.23-.35-.44-.68-.64-1s-.38-.57-.54-.83-.3-.5-.41-.71a5.58,5.58,0,0,1-.25-.54.41.41,0,0,1-.06-.27l19.14,5.31s0,.13.06.27a5.58,5.58,0,0,0,.25.54l.42.73c.16.26.34.55.54.84s.42.63.65,1,.46.72.69,1.09.46.72.66,1.05l.53.88"/><polyline class="cls-14" points="148.2 185.65 129.06 180.34 129.06 180.34 129.06 180.34 129.06 180.34 129.07 180.34 148.21 185.64 148.21 185.64 148.2 185.64 148.2 185.65 148.2 185.65"/></g></g></g><g class="cls-2"><g class="cls-32"><g class="cls-2"><path class="cls-19" d="M164.27,121.36,144.9,117c.19,0,.43.09.7.14s.56.11.89.17l1,.17,1.14.18,2.63.38,2.07.31,1.55.26c.44.08.8.15,1.09.22l19.5,4.41c-.29-.07-.66-.14-1.1-.22s-1-.17-1.57-.26l-2.1-.32-2.66-.38-1.16-.18-1.05-.18-.91-.16-.7-.15"/></g></g></g><g class="cls-2"><g class="cls-33"><g class="cls-2"><path class="cls-19" d="M158.26,110.56,139,106.31a2.82,2.82,0,0,0,.42,0l.48,0,.55-.11.65-.18,19.33,4.24-.65.18-.57.11a4.35,4.35,0,0,1-.48,0h-.42"/><path class="cls-20" d="M160.38,110.23,141.05,106c.27-.08.56-.17.87-.28l1-.37,1.21-.47,1.41-.56,2.3-.93,1.93-.78,1.38-.54.64-.24L171.28,106l-.65.25-1.39.55-2,.78-2.32,1-1.44.57c-.44.18-.85.33-1.22.47s-.72.27-1,.38l-.88.29"/><polyline class="cls-19" points="171.28 105.99 151.82 101.82 151.83 101.82 151.84 101.82 151.84 101.82 151.85 101.82 151.85 101.82 151.86 101.82 151.86 101.82 151.87 101.82 171.33 105.99 171.32 105.99 171.32 105.99 171.31 105.99 171.31 105.99 171.3 105.99 171.3 105.99 171.29 105.99 171.28 105.99"/></g></g></g><g class="cls-2"><g class="cls-34"><g class="cls-2"><path class="cls-14" d="M128.31,219.79,109.43,214c.1-.1.19-.21.28-.31l.25-.31a2.86,2.86,0,0,0,.22-.3,3.23,3.23,0,0,0,.18-.28l18.9,5.78a2.2,2.2,0,0,1-.18.28l-.22.31-.26.31c-.09.11-.19.21-.29.32"/><path class="cls-15" d="M129.26,218.57l-18.9-5.78a2.53,2.53,0,0,0,.13-.22c0-.07.06-.13.08-.19a.53.53,0,0,0,0-.16.2.2,0,0,0,0-.11l18.9,5.77a.37.37,0,0,1,0,.11.58.58,0,0,1-.05.16l-.08.2-.13.22"/></g></g></g><g class="cls-2"><g class="cls-35"><g class="cls-2"><polyline class="cls-19" points="127.46 220.63 108.59 214.82 108.59 214.82 108.59 214.82 108.59 214.82 108.59 214.82 108.6 214.82 108.6 214.82 108.6 214.82 108.6 214.82 127.48 220.63 127.48 220.63 127.47 220.63 127.47 220.63 127.47 220.63 127.47 220.63 127.47 220.63 127.47 220.63 127.46 220.63"/><polyline class="cls-20" points="127.48 220.63 108.6 214.82 108.61 214.81 108.62 214.81 108.63 214.8 108.64 214.8 127.52 220.6 127.51 220.61 127.5 220.62 127.49 220.62 127.48 220.63"/><path class="cls-21" d="M127.52,220.6l-18.88-5.8.06-.05.07-.06.09-.08.1-.11,18.88,5.81-.1.1-.09.09-.08.06,0,0"/><path class="cls-14" d="M127.84,220.31,109,214.5l.1-.1.11-.12.13-.14.13-.15,18.88,5.8-.13.15-.12.14-.12.12-.1.11"/></g></g></g><polygon class="cls-36" points="133.34 184.54 114.37 179.24 114.5 177.86 133.47 183.14 133.34 184.54"/><polygon class="cls-36" points="133.47 183.14 114.5 177.86 114.64 176.48 133.61 181.74 133.47 183.14"/><g class="cls-2"><g class="cls-37"><g class="cls-2"><path class="cls-15" d="M130.15,191.28l-18.93-5.39c.1-.21.18-.41.25-.6s.13-.35.17-.49a2,2,0,0,0,.06-.34c0-.08,0-.13,0-.14l18.93,5.37s.06.06,0,.15a1.35,1.35,0,0,1-.06.34,5,5,0,0,1-.17.5c-.07.19-.15.39-.25.6"/></g></g></g><polygon class="cls-38" points="154.34 94.15 135.07 90.13 137.89 88.51 157.19 92.5 154.34 94.15"/><polygon class="cls-39" points="133.61 181.74 114.64 176.48 111.78 175.08 130.72 180.32 133.61 181.74"/><g class="cls-2"><g class="cls-40"><g class="cls-2"><path class="cls-15" d="M129.51,217.88l-18.9-5.77a1.83,1.83,0,0,0-.28-.4c-.16-.19-.39-.44-.67-.73s-.61-.61-1-1-.75-.73-1.16-1.11l-1.17-1.11-1-1-.73-.78a3,3,0,0,1-.34-.45,8.36,8.36,0,0,1,.56-2.58c.44-1.44,1.07-3.35,1.8-5.42s1.55-4.29,2.35-6.34,1.58-3.94,2.23-5.34l18.93,5.39c-.66,1.42-1.45,3.34-2.27,5.42s-1.64,4.34-2.38,6.44-1.38,4-1.82,5.5a8.76,8.76,0,0,0-.57,2.61,2.57,2.57,0,0,0,.35.46c.18.21.44.48.73.79l1,1,1.18,1.13c.42.38.82.76,1.18,1.12s.7.68,1,1,.51.54.68.74a1.61,1.61,0,0,1,.28.4"/></g></g></g><polygon class="cls-41" points="125.53 187.5 106.66 182.16 114.37 179.24 133.34 184.54 125.53 187.5"/><g class="cls-2"><g class="cls-42"><g class="cls-2"><path class="cls-14" d="M144.37,102.55l-19.15-4.14.32-.39.36-.4.38-.41.4-.42,19.17,4.11-.41.43-.39.42c-.12.14-.24.27-.35.41s-.23.26-.33.39"/><path class="cls-21" d="M145.85,100.9l-19.17-4.11c.52-.53,1.08-1.06,1.68-1.61s1.23-1.08,1.87-1.61,1.31-1,2-1.52,1.3-.92,1.92-1.32l19.26,4c-.63.41-1.28.86-1.94,1.35s-1.33,1-2,1.54-1.29,1.09-1.89,1.63-1.18,1.1-1.7,1.63"/><path class="cls-20" d="M153.37,94.75l-19.26-4,.25-.16.24-.15.24-.15.23-.14,19.27,4-.23.14-.25.15-.24.15-.25.16"/></g></g></g><g class="cls-2"><g class="cls-43"><g class="cls-2"><polyline class="cls-19" points="142.62 104.42 123.5 100.26 123.5 100.26 123.5 100.26 123.5 100.26 123.5 100.26 123.5 100.26 123.51 100.26 123.51 100.26 123.52 100.25 142.64 104.42 142.64 104.42 142.63 104.42 142.63 104.42 142.63 104.42 142.63 104.42 142.63 104.42 142.62 104.42 142.62 104.42"/><path class="cls-20" d="M142.64,104.42l-19.12-4.16h0l19.13,4.16h-.06"/><path class="cls-21" d="M142.7,104.39l-19.13-4.16.08-.06.1-.09.12-.11.13-.13L143.14,104l-.14.13-.12.12-.1.08-.08.06"/><path class="cls-14" d="M143.14,104,124,99.84l.27-.29.31-.34.32-.38.32-.42,19.15,4.14L144,103l-.32.39-.31.35-.27.29"/></g></g></g><polygon class="cls-41" points="117.71 190.47 98.93 185.08 106.66 182.16 125.53 187.5 117.71 190.47"/><polygon class="cls-44" points="116.96 192.79 98.19 187.37 98.93 185.08 117.71 190.47 116.96 192.79"/><g class="cls-2"><g class="cls-45"><g class="cls-2"><polyline class="cls-20" points="109.5 217.59 90.83 211.81 90.83 211.81 90.83 211.81 90.83 211.81 90.83 211.81 109.5 217.59 109.5 217.59 109.5 217.59 109.5 217.59 109.5 217.59"/><polyline class="cls-19" points="109.5 217.59 90.83 211.81 90.83 211.81 90.83 211.81 90.83 211.81 90.84 211.81 90.84 211.81 90.84 211.81 90.84 211.81 90.84 211.81 109.51 217.59 109.51 217.59 109.51 217.59 109.5 217.59 109.5 217.59 109.5 217.59 109.5 217.59 109.5 217.59 109.5 217.59"/><polyline class="cls-20" points="109.51 217.59 90.84 211.81 90.85 211.8 90.85 211.8 90.85 211.8 90.86 211.8 109.52 217.58 109.52 217.58 109.52 217.58 109.51 217.58 109.51 217.59"/><polyline class="cls-21" points="109.52 217.58 90.86 211.8 90.86 211.8 90.86 211.79 90.87 211.79 90.87 211.78 109.54 217.56 109.53 217.57 109.53 217.57 109.53 217.57 109.52 217.58"/><path class="cls-14" d="M109.54,217.56l-18.67-5.78h0v0l0,0,18.66,5.78v0h0"/><path class="cls-15" d="M109.58,217.5l-18.66-5.78a7.78,7.78,0,0,0,.4-1c.18-.54.42-1.26.7-2.2s.63-2.07,1-3.43.85-2.94,1.37-4.74c.41-1.47.83-2.94,1.23-4.33l1.12-3.88.89-3,.53-1.74L117,192.79c-.1.33-.29.94-.53,1.77s-.56,1.87-.91,3.06-.73,2.53-1.14,3.94L113.14,206l-1.39,4.81c-.41,1.38-.75,2.54-1,3.48s-.52,1.69-.71,2.23a6.29,6.29,0,0,1-.41,1"/></g></g></g><g class="cls-2"><g class="cls-46"><g class="cls-2"><path class="cls-15" d="M130.71,180.33l-18.93-5.25a14.34,14.34,0,0,1-1.28-.68c-.41-.24-.82-.5-1.2-.76s-.72-.52-1-.78a6.94,6.94,0,0,1-.77-.71,15.41,15.41,0,0,1-2.36-3.75,43.25,43.25,0,0,1-2.14-5.53,61,61,0,0,1-1.64-6.46,50.91,50.91,0,0,1-.86-6.5c0-.36-.06-.7-.09-1s-.08-.6-.12-.84-.09-.43-.13-.57-.08-.21-.11-.22l18.81,4.85s.08.09.12.23.08.33.13.58.08.52.12.84.07.67.09,1a50.91,50.91,0,0,0,.87,6.6,63.14,63.14,0,0,0,1.65,6.54,44,44,0,0,0,2.16,5.61,16,16,0,0,0,2.39,3.8,7.12,7.12,0,0,0,.78.73c.31.25.66.52,1,.78s.79.53,1.22.77.85.49,1.28.7"/></g></g></g><g class="cls-2"><g class="cls-47"><g class="cls-2"><path class="cls-15" d="M121.13,179.53l-18.82-5.24s-.1-.13-.15-.3-.08-.42-.13-.72-.07-.63-.11-1-.06-.79-.09-1.22c0-.59-.07-1.09-.12-1.52a8.72,8.72,0,0,0-.18-1.07,2.37,2.37,0,0,0-.26-.66.6.6,0,0,0-.35-.29l18.82,5.14a.68.68,0,0,1,.35.29,2.6,2.6,0,0,1,.26.67,9.13,9.13,0,0,1,.18,1.09c0,.43.09.95.13,1.54,0,.44,0,.85.09,1.24s.07.73.11,1a6,6,0,0,0,.13.72c.05.18.09.28.14.31"/></g></g></g><g class="cls-2"><g class="cls-48"><g class="cls-2"><path class="cls-19" d="M128,108l-19-4.23h.11L128.14,108H128"/><path class="cls-20" d="M128.14,108l-18.95-4.22h.07l0,0,19,4.23h-.1"/><path class="cls-21" d="M128.24,108l-19-4.23,0,0,0,0,0,0,0,0,19,4.22,0,0,0,0,0,0,0,0"/><path class="cls-14" d="M128.36,107.84l-19-4.22.06-.06.06-.08.06-.08.06-.1,19,4.22-.06.1-.06.08-.06.08-.06.06"/><path class="cls-15" d="M128.6,107.52l-19-4.22a10.8,10.8,0,0,0,.82-1.9c.29-.84.59-1.84.88-2.94s.57-2.31.82-3.53.46-2.46.61-3.65c.06-.45.12-.89.18-1.29s.12-.77.18-1.09.12-.59.17-.8a2.73,2.73,0,0,1,.13-.42l19,4a1.92,1.92,0,0,0-.14.43c-.05.21-.11.48-.17.81s-.12.7-.18,1.11-.12.84-.18,1.3c-.16,1.21-.38,2.47-.63,3.71s-.53,2.45-.82,3.57-.6,2.14-.9,3a11.18,11.18,0,0,1-.83,1.93"/><polyline class="cls-14" points="132.45 91.67 113.43 87.68 113.44 87.67 113.44 87.67 113.45 87.66 113.45 87.66 132.47 91.65 132.46 91.65 132.46 91.66 132.45 91.67 132.45 91.67"/><polyline class="cls-21" points="132.47 91.65 113.45 87.66 113.46 87.65 113.46 87.65 113.46 87.65 113.46 87.65 132.48 91.64 132.47 91.64 132.47 91.64 132.47 91.64 132.47 91.65"/><polyline class="cls-20" points="132.48 91.64 113.46 87.65 113.46 87.65 113.47 87.64 113.47 87.64 113.47 87.64 132.49 91.64 132.48 91.64 132.48 91.64 132.48 91.64 132.48 91.64"/><polyline class="cls-19" points="132.49 91.64 113.47 87.64 113.47 87.64 113.47 87.64 113.47 87.64 113.47 87.64 113.48 87.64 113.48 87.64 113.49 87.64 113.49 87.65 132.51 91.64 132.5 91.64 132.5 91.64 132.49 91.64 132.49 91.64 132.49 91.64 132.49 91.64 132.49 91.64 132.49 91.64"/></g></g></g><polygon class="cls-49" points="112.64 151.05 93.9 146.21 93.23 145.18 111.97 150 112.64 151.05"/><polygon class="cls-36" points="118.78 118.17 99.94 113.8 100.07 112.6 118.91 116.96 118.78 118.17"/><polygon class="cls-50" points="108.62 155.32 89.93 150.42 93.9 146.21 112.64 151.05 108.62 155.32"/><polygon class="cls-51" points="115.62 118.48 96.82 114.1 99.94 113.8 118.78 118.17 115.62 118.48"/><g class="cls-2"><g class="cls-52"><g class="cls-2"><path class="cls-15" d="M112.47,173.24l-18.73-5.15,0,0h0s0,0,0,0a1.48,1.48,0,0,1,0-.48c0-.26.1-.63.18-1.06s.2-.93.33-1.47.28-1.14.44-1.75.33-1.27.46-1.82.23-1,.3-1.46.12-.75.14-1a.78.78,0,0,0,0-.44,1.55,1.55,0,0,0-.44-.23c-.25-.11-.59-.24-1-.39l-1.37-.49L91,156.91l-1.64-.54c-.52-.18-1-.36-1.41-.52s-.78-.32-1-.44a2.07,2.07,0,0,1-.52-.29l18.65,5a3,3,0,0,0,.52.29l1.05.44,1.43.53,1.66.54,1.65.54,1.39.5c.41.15.75.28,1,.39a1.92,1.92,0,0,1,.45.24.83.83,0,0,1,0,.45,7.41,7.41,0,0,1-.14,1c-.07.42-.18.92-.31,1.48s-.28,1.18-.46,1.85-.31,1.21-.44,1.77-.25,1.06-.33,1.5-.16.8-.2,1.07a1.67,1.67,0,0,0,0,.48v0h0l0,0h0"/></g></g></g><g class="cls-2"><g class="cls-53"><g class="cls-2"><path class="cls-15" d="M105.08,160.1l-18.65-5a.38.38,0,0,1-.09-.13.78.78,0,0,1,0-.16.68.68,0,0,1,.06-.21,2.41,2.41,0,0,1,.14-.28l18.65,5a1.76,1.76,0,0,0-.14.27.56.56,0,0,0-.06.22.39.39,0,0,0,0,.16.42.42,0,0,0,.09.14"/><path class="cls-14" d="M105.17,159.31l-18.65-5c.1-.15.23-.34.41-.57s.41-.5.68-.81l1-1.1c.38-.42.82-.9,1.33-1.44l18.69,4.91-1.34,1.46c-.39.42-.72.79-1,1.11s-.51.59-.69.82a5.28,5.28,0,0,0-.42.59"/></g></g></g><g class="cls-2"><g class="cls-54"><g class="cls-2"><path class="cls-15" d="M118.91,117l-18.84-4.36a8.37,8.37,0,0,0-.1-1.9c-.11-.79-.3-1.71-.53-2.68s-.53-2-.85-3-.67-1.93-1-2.75c-.2-.45-.36-.83-.49-1.16s-.23-.6-.31-.82a2.71,2.71,0,0,1-.13-.54.47.47,0,0,1,0-.28l18.81,4.17a.42.42,0,0,0,0,.29,4.36,4.36,0,0,0,.14.54c.07.23.18.5.31.83s.3.72.49,1.17c.37.85.73,1.81,1,2.8s.61,2,.85,3a27.66,27.66,0,0,1,.54,2.72,8.62,8.62,0,0,1,.1,1.93"/><polyline class="cls-14" points="115.46 103.67 96.65 99.5 96.66 99.49 96.66 99.48 96.67 99.47 96.68 99.47 115.48 103.64 115.48 103.64 115.47 103.65 115.47 103.66 115.46 103.67"/><polyline class="cls-21" points="115.48 103.64 96.68 99.47 96.68 99.46 96.69 99.46 96.7 99.45 96.7 99.45 115.51 103.61 115.5 103.62 115.5 103.63 115.49 103.63 115.48 103.64"/><path class="cls-20" d="M115.51,103.62,96.7,99.45h0l18.81,4.16h0"/><path class="cls-19" d="M115.56,103.59,96.75,99.43h.41l.39,0,.44.08.49.1,18.83,4.17-.5-.1-.45-.08-.39,0a2,2,0,0,0-.34,0h-.07"/></g></g></g><g class="cls-2"><g class="cls-55"><g class="cls-2"><path class="cls-15" d="M112,150l-18.73-4.83a10.68,10.68,0,0,0-.84-1.09c-.33-.38-.7-.75-1.1-1.13s-.82-.73-1.26-1.07-.88-.65-1.33-.94a7.85,7.85,0,0,0-.76-.42,8.39,8.39,0,0,0-.9-.39c-.33-.13-.7-.25-1.1-.38s-.87-.25-1.38-.38l18.64,4.75c.52.13,1,.26,1.39.39s.78.25,1.11.38a7.77,7.77,0,0,1,.91.39c.28.14.53.28.78.43.45.29.9.61,1.34.95s.87.72,1.28,1.09.77.76,1.1,1.14A8.66,8.66,0,0,1,112,150"/></g></g></g><g class="cls-2"><g class="cls-56"><g class="cls-2"><polyline class="cls-15" points="99.87 142.95 81.27 138.21 81.27 138.21 81.27 138.21 81.28 138.2 81.28 138.2 99.88 142.93 99.87 142.94 99.87 142.94 99.87 142.94 99.87 142.95"/><path class="cls-14" d="M99.88,142.93l-18.6-4.73v0l0,0,0,0,0,0,18.6,4.73,0,0,0,0v0h0"/><path class="cls-21" d="M100,142.85l-18.6-4.73c.11-.12.35-.32.67-.59l1.23-1,1.66-1.3,2-1.48c.63-.48,1.21-.92,1.73-1.33s1-.78,1.4-1.12l1.08-.91c.31-.28.56-.52.77-.73l18.73,4.61c-.21.21-.47.45-.78.73s-.68.59-1.09.93-.9.73-1.42,1.14-1.11.86-1.75,1.34l-2,1.51c-.61.47-1.18.92-1.67,1.32s-.92.74-1.25,1-.56.48-.68.6"/><path class="cls-14" d="M110.57,134.27l-18.73-4.61.17-.18.14-.16.12-.14.08-.13,18.74,4.6a.47.47,0,0,1-.09.12l-.11.15-.15.17-.17.18"/><path class="cls-15" d="M111.09,133.65l-18.74-4.6,0-.06a.14.14,0,0,0,0-.06.08.08,0,0,0,0-.05.06.06,0,0,0,0,0l18.74,4.59a.09.09,0,0,1,0,0,.17.17,0,0,1,0,.05s0,0,0,.05a.43.43,0,0,0,0,.07"/></g></g></g><g class="cls-2"><g class="cls-57"><g class="cls-2"><path class="cls-15" d="M100.74,143.55,82.13,138.8a1.89,1.89,0,0,1-.38-.12,1.77,1.77,0,0,1-.28-.15.55.55,0,0,1-.17-.17.14.14,0,0,1,0-.15L99.87,143a.15.15,0,0,0,0,.15.53.53,0,0,0,.17.16,1.11,1.11,0,0,0,.29.16,2.8,2.8,0,0,0,.38.13"/></g></g></g><g class="cls-2"><g class="cls-58"><g class="cls-2"><path class="cls-15" d="M111.18,133.43l-18.74-4.59a3.11,3.11,0,0,0-.32-1.52A15.3,15.3,0,0,0,91,125.09c-.51-.83-1.13-1.73-1.84-2.67s-1.51-1.89-2.37-2.83c-.46-.51-.89-1-1.29-1.46s-.75-.86-1-1.22-.55-.65-.72-.87a1.64,1.64,0,0,1-.26-.39h0l18.63,4.41h0a1.47,1.47,0,0,0,.26.4c.17.22.42.52.72.88l1.07,1.24c.4.46.84,1,1.31,1.47.86,1,1.67,1.93,2.39,2.88a31.8,31.8,0,0,1,1.87,2.71,16.12,16.12,0,0,1,1.18,2.26,3.27,3.27,0,0,1,.32,1.53"/><polyline class="cls-14" points="102.06 120.05 83.43 115.64 83.43 115.64 83.43 115.64 83.43 115.64 83.44 115.63 102.07 120.04 102.07 120.05 102.07 120.05 102.07 120.05 102.06 120.05"/><polyline class="cls-21" points="102.07 120.04 83.44 115.63 83.44 115.63 83.44 115.63 83.44 115.63 83.45 115.63 102.09 120.03 102.08 120.04 102.08 120.04 102.08 120.04 102.07 120.04"/><path class="cls-20" d="M102.09,120l-18.64-4.4h.1L102.19,120h-.1"/><path class="cls-19" d="M102.19,120l-18.64-4.41a10,10,0,0,1,1.24-.22c.64-.09,1.51-.19,2.6-.32l4-.42,5.43-.53,18.8,4.38-5.49.54-4,.43c-1.11.13-2,.23-2.63.32a11.74,11.74,0,0,0-1.26.23"/></g></g></g><g class="cls-2"><g class="cls-59"><g class="cls-2"><path class="cls-15" d="M136.16,248.14l-19-6.19q-3-1-5.83-2.14c-1.91-.78-3.81-1.63-5.66-2.56s-3.69-1.92-5.48-3-3.53-2.2-5.23-3.39a86.38,86.38,0,0,1-9.12-7.42,89,89,0,0,1-8.09-8.6,90.58,90.58,0,0,1-6.91-9.61,88.36,88.36,0,0,1-5.58-10.42,108.06,108.06,0,0,1-4.17-10.67,92.38,92.38,0,0,1-2.83-10.61,94.11,94.11,0,0,1-1.55-10.92A113.27,113.27,0,0,1,56.4,151c0-2.23.11-4.28.23-6.23s.29-3.79.52-5.61.51-3.6.87-5.43.77-3.71,1.26-5.7c.68-2.73,1.45-5.39,2.31-8s1.8-5.17,2.84-7.67,2.16-4.94,3.38-7.33,2.51-4.72,3.91-7l18.5,4.16c-1.41,2.31-2.73,4.67-4,7.1s-2.37,4.9-3.42,7.43-2,5.13-2.88,7.78-1.65,5.36-2.34,8.12c-.5,2-.93,3.92-1.28,5.78s-.65,3.67-.88,5.52-.41,3.71-.53,5.69-.2,4-.24,6.31a113.61,113.61,0,0,0,.35,11.8,93.58,93.58,0,0,0,4.41,21.83,112.59,112.59,0,0,0,4.22,10.82A90.4,90.4,0,0,0,96.3,220.7a89.85,89.85,0,0,0,8.18,8.71,88.22,88.22,0,0,0,9.22,7.52q2.58,1.81,5.3,3.43c1.8,1.08,3.65,2.08,5.53,3s3.8,1.8,5.74,2.6,3.9,1.51,5.89,2.16"/><path class="cls-14" d="M90.22,102.2,71.72,98q1.45-2.37,3-4.67t3.3-4.51q1.71-2.2,3.56-4.33t3.81-4.16l.18-.19.18-.19c.06-.06.13-.12.19-.19l.18-.18,18.69,3.89-.18.19c-.06.06-.13.12-.19.19l-.18.19-.19.19q-2,2.07-3.86,4.22t-3.6,4.4q-1.74,2.25-3.34,4.57c-1.07,1.55-2.1,3.14-3.09,4.74"/><path class="cls-21" d="M104.85,83.51,86.16,79.62q1.94-2,3.93-3.79t4.08-3.51q2.08-1.69,4.23-3.24t4.36-3l18.9,3.68c-1.49,1-3,2-4.42,3S114.37,75,113,76.1s-2.78,2.33-4.13,3.57-2.68,2.51-4,3.84"/><path class="cls-20" d="M121.66,69.79l-18.9-3.68c1.82-1.17,3.67-2.26,5.56-3.29s3.8-2,5.75-2.86,3.93-1.7,6-2.45,4-1.42,6.12-2L145.33,59c-2.1.61-4.16,1.3-6.2,2.06s-4,1.58-6,2.48-3.91,1.87-5.82,2.91-3.79,2.15-5.63,3.33"/><path class="cls-19" d="M145.33,59l-19.19-3.53c1-.3,2.11-.59,3.17-.86s2.13-.52,3.2-.75,2.16-.45,3.25-.65,2.19-.38,3.3-.54c.73-.11,1.49-.2,2.27-.28s1.57-.15,2.38-.21,1.64-.1,2.48-.13,1.69,0,2.55-.05c1.34,0,2.71,0,4.08.08s2.76.14,4.13.26,2.75.26,4.1.43,2.68.38,4,.61l19.65,3.47c-1.31-.23-2.66-.43-4-.61s-2.75-.32-4.14-.44-2.79-.2-4.18-.26-2.78-.08-4.14-.07c-.87,0-1.73,0-2.58.05s-1.68.07-2.5.13-1.63.12-2.41.21-1.56.18-2.3.29c-1.12.16-2.23.35-3.33.55s-2.2.42-3.29.65-2.17.5-3.25.77-2.14.57-3.2.88"/></g></g></g><path class="cls-60" d="M255.81,136.71a119.26,119.26,0,0,1,.22,23.64,105.65,105.65,0,0,1-4.44,22.16,101.53,101.53,0,0,1-9,20.39,106.86,106.86,0,0,1-13.47,18.39A103.51,103.51,0,0,1,217,232.7a88.42,88.42,0,0,1-28,15,102.55,102.55,0,0,1-16.23,3.78c-.7.1-1.41.2-2.12.28s-1.42.16-2.13.22-1.43.12-2.14.16-1.44.08-2.16.1a80.59,80.59,0,0,1-13.14-.7A84.71,84.71,0,0,1,138,248.71a86,86,0,0,1-12.58-4.91,84,84,0,0,1-11.69-6.87,88.22,88.22,0,0,1-9.22-7.52,89.85,89.85,0,0,1-8.18-8.71,90.4,90.4,0,0,1-12.63-20.32,112.59,112.59,0,0,1-4.22-10.82A93.58,93.58,0,0,1,75,167.73a113.61,113.61,0,0,1-.35-11.8c0-2.26.11-4.33.24-6.31s.3-3.85.53-5.69.52-3.66.88-5.52.78-3.76,1.28-5.78a113.68,113.68,0,0,1,4.29-13.58,104.79,104.79,0,0,1,5.86-12.6,103.09,103.09,0,0,1,7.4-11.6,106.46,106.46,0,0,1,8.94-10.58A99.21,99.21,0,0,1,116,73.74a93.2,93.2,0,0,1,13.07-8.22,92,92,0,0,1,14.18-5.87,94.78,94.78,0,0,1,15.17-3.49c.74-.11,1.51-.21,2.3-.29s1.59-.16,2.41-.21,1.66-.1,2.5-.13,1.71-.05,2.58-.05c1.73,0,3.5,0,5.27.12s3.54.24,5.3.43,3.48.42,5.17.7,3.31.61,4.87,1a83,83,0,0,1,11.9,3.84,85,85,0,0,1,11.19,5.56,88.55,88.55,0,0,1,10.38,7.23,94.44,94.44,0,0,1,9.47,8.82,82,82,0,0,1,8.83,11.42A102,102,0,0,1,253,122.23,87.66,87.66,0,0,1,255.81,136.71Zm-13.5,28c.24-1.33.45-3.3.62-5.58s.28-4.89.35-7.51.09-5.24,0-7.57-.15-4.37-.32-5.81c-.25-2.06-.58-4.14-1-6.2s-.87-4.13-1.41-6.16-1.15-4-1.83-6-1.41-3.88-2.21-5.74a81.5,81.5,0,0,0-9.82-16.92,77.22,77.22,0,0,0-13.15-13.62,72.73,72.73,0,0,0-15.83-9.75A69.15,69.15,0,0,0,180,68.53q-1.47-.23-2.94-.39c-1-.11-1.95-.2-2.93-.27s-2-.12-2.92-.15-1.94,0-2.91,0a73.34,73.34,0,0,0-15.8,1.82,74.82,74.82,0,0,0-15.09,5.19,79.15,79.15,0,0,0-14,8.43,87.09,87.09,0,0,0-12.57,11.53,91.38,91.38,0,0,0-7.7,9.9,85.14,85.14,0,0,0-6.17,10.8,93.14,93.14,0,0,0-4.71,11.81,111.38,111.38,0,0,0-3.28,12.92c-.31,1.61-.56,3.68-.76,6s-.34,4.85-.41,7.4-.08,5.1,0,7.41.21,4.41.43,6a96.61,96.61,0,0,0,2.55,12.82,86.12,86.12,0,0,0,4.16,11.86,82.38,82.38,0,0,0,5.76,10.92,85.94,85.94,0,0,0,7.36,10c.44.51.77.91,1,1.24a4.23,4.23,0,0,1,.52.85,2.08,2.08,0,0,1,.15.74,6.68,6.68,0,0,1-.09,1c0,.21,0,.39-.07.55a3.58,3.58,0,0,0,0,.4,1,1,0,0,0,0,.24c0,.05,0,.08,0,.08s.17-.23.34-.69.4-1.17.7-2.12.66-2.15,1.09-3.62.93-3.2,1.51-5.21l1.24-4.39c.41-1.41.8-2.75,1.14-3.94s.66-2.23.91-3.06.43-1.44.53-1.77l.75-2.32,7.82-3,7.81-3,.13-1.4.14-1.4-2.9-1.41c-.43-.21-.86-.45-1.28-.7s-.84-.51-1.22-.77-.73-.53-1-.78a7.12,7.12,0,0,1-.78-.73,16,16,0,0,1-2.39-3.8,44,44,0,0,1-2.16-5.61,63.14,63.14,0,0,1-1.65-6.54,50.91,50.91,0,0,1-.87-6.6c0-.37-.06-.72-.1-1s-.08-.61-.12-.86a4.57,4.57,0,0,0-.13-.57c0-.14-.08-.21-.11-.21s-.17.26-.19.72a17.21,17.21,0,0,0,.06,1.91c0,.79.15,1.72.27,2.72s.28,2.07.47,3.15c.27,1.71.57,3.28.91,4.73s.69,2.79,1.09,4a31.33,31.33,0,0,0,1.31,3.42,23.3,23.3,0,0,0,1.56,2.94c.13.22.26.43.37.63s.22.37.31.53.16.3.21.4a.7.7,0,0,1,.08.2c0,.08-.23.24-.58.44s-.81.45-1.29.68-1,.47-1.41.63a3.9,3.9,0,0,1-.9.29s-.09-.13-.14-.31a6,6,0,0,1-.13-.72c0-.3-.08-.65-.11-1s-.07-.8-.09-1.24c0-.65-.09-1.2-.14-1.66a8.4,8.4,0,0,0-.21-1.12,1.67,1.67,0,0,0-.31-.63.48.48,0,0,0-.42-.19,6.89,6.89,0,0,1-1.06.24c-.44.08-1,.15-1.52.21s-1.12.11-1.67.15-1.08.06-1.54.07h-1l-.3,0c-.07,0-.12,0-.13-.07a1.67,1.67,0,0,1,0-.48c0-.27.11-.64.2-1.07s.2-.95.33-1.5.28-1.16.44-1.77.34-1.29.46-1.85.24-1.06.31-1.48a7.41,7.41,0,0,0,.14-1,.83.83,0,0,0,0-.45,1.92,1.92,0,0,0-.45-.24c-.25-.11-.59-.24-1-.39l-1.39-.5-1.65-.54-1.66-.54-1.43-.53-1.05-.44a3,3,0,0,1-.52-.29.39.39,0,0,1-.09-.41,2.55,2.55,0,0,1,.45-.77c.25-.34.63-.79,1.15-1.37s1.19-1.32,2-2.22l4-4.28L112,150a8.66,8.66,0,0,0-.85-1.11c-.33-.38-.7-.76-1.1-1.14s-.83-.74-1.28-1.09-.89-.66-1.34-.95a10.36,10.36,0,0,0-2.42-1.08c-.52-.17-1.11-.34-1.81-.52s-1.5-.36-2.43-.56a2.8,2.8,0,0,1-.38-.13,1.11,1.11,0,0,1-.29-.16.53.53,0,0,1-.17-.16.15.15,0,0,1,0-.15,2.68,2.68,0,0,1,.49-.47c.3-.26.71-.6,1.23-1s1.11-.89,1.78-1.41,1.4-1.08,2.16-1.65c.93-.7,1.75-1.34,2.45-1.9s1.28-1,1.75-1.45a11.94,11.94,0,0,0,1.06-1,1.5,1.5,0,0,0,.39-.6,3.27,3.27,0,0,0-.32-1.53,16.12,16.12,0,0,0-1.18-2.26,31.8,31.8,0,0,0-1.87-2.71c-.72-1-1.53-1.92-2.39-2.88-.47-.52-.91-1-1.31-1.47L103,121.34c-.3-.36-.55-.66-.72-.88a1.47,1.47,0,0,1-.26-.4s.27-.11.83-.2,1.38-.2,2.5-.33l4.23-.46,6-.59,3.16-.31.13-1.21a8.62,8.62,0,0,0-.1-1.93,27.66,27.66,0,0,0-.54-2.72c-.24-1-.53-2-.85-3s-.68-2-1-2.8c-.24-.55-.43-1-.58-1.4a8.16,8.16,0,0,1-.31-.89,1,1,0,0,1,0-.48.17.17,0,0,1,.19-.14,7.49,7.49,0,0,1,1.66.22c.68.15,1.46.37,2.29.63s1.68.57,2.51.9,1.63.68,2.34,1l1.29.63,1.12.52c.33.15.62.27.83.35a2,2,0,0,0,.43.13c.23,0,.53-.44.85-1.19a25.41,25.41,0,0,0,1.05-3c.35-1.22.7-2.63,1-4.08s.58-3,.77-4.39c.06-.5.13-1,.2-1.42s.13-.84.2-1.18a6.93,6.93,0,0,1,.18-.79c0-.19.1-.3.13-.3s.48.33,1,.88,1.16,1.31,1.87,2.2,1.5,1.88,2.26,2.89,1.48,2,2.11,3c.36.54.71,1,1,1.51l.89,1.23c.26.35.49.63.65.83s.28.3.33.3a.56.56,0,0,0,.22-.15,4.83,4.83,0,0,0,.41-.4c.16-.17.34-.37.53-.6s.39-.46.58-.72a26.1,26.1,0,0,1,2-2.15c.78-.76,1.64-1.54,2.55-2.31s1.85-1.5,2.77-2.17,1.84-1.28,2.67-1.77l2.85-1.65-.13,5.41c0,1.4,0,2.84,0,4.22s.13,2.72.24,3.9a29,29,0,0,0,.41,3,3.91,3.91,0,0,0,.52,1.54,3.7,3.7,0,0,0,1,0,10.53,10.53,0,0,0,1.34-.34c.52-.16,1.13-.38,1.86-.65l2.53-1,2.42-1,2-.8,1.38-.54.54-.2c.08,0,.11.08,0,.31a8.22,8.22,0,0,1-.52,1.17c-.29.57-.7,1.35-1.26,2.38s-1.28,2.31-2.17,3.92c-.55,1-1.07,1.92-1.53,2.79s-.88,1.66-1.21,2.33-.6,1.22-.77,1.62-.24.63-.19.67a1.14,1.14,0,0,0,.42.15c.24.06.58.13,1,.2l1.37.24,1.63.26c1.58.22,2.89.41,4,.58s1.94.3,2.59.43a11.46,11.46,0,0,1,1.42.32c.3.09.43.17.43.25a2.71,2.71,0,0,1-.39.49c-.25.28-.6.67-1,1.14s-1,1-1.55,1.62l-1.87,1.94-1.92,1.93-1.62,1.67c-.47.49-.86.91-1.14,1.22a5,5,0,0,0-.49.6.65.65,0,0,0-.09.24.31.31,0,0,0,0,.19.38.38,0,0,0,.14.17,1.09,1.09,0,0,0,.25.15c.22.08,1,.41,2,.85l3.46,1.56,3.31,1.52c.9.42,1.5.7,1.53.73s0,.07-.14.16-.27.23-.48.39l-.74.54-.91.64c-.7.49-1.45,1-2.23,1.44s-1.6.92-2.43,1.35-1.68.84-2.53,1.22-1.7.73-2.53,1l-1,.37-.84.34-.62.29a1.39,1.39,0,0,0-.3.18c-.11.12,0,.36.25.7a9.73,9.73,0,0,0,1.21,1.21c.53.45,1.17.95,1.86,1.44s1.43,1,2.17,1.38l1.06.65c.33.21.63.4.88.58a6.53,6.53,0,0,1,.59.46c.14.12.22.21.22.26s-.27.34-.71.63-1,.66-1.73,1-1.44.76-2.19,1.12-1.47.67-2.09.9l-.79.33c-.24.12-.46.23-.64.34a1.85,1.85,0,0,0-.44.3c-.1.09-.16.17-.16.24a2.3,2.3,0,0,0,.07.4c0,.2.11.47.2.79s.18.67.3,1,.24.79.38,1.2.24.81.34,1.18.19.7.25,1,.1.52.12.69,0,.28,0,.3a1.07,1.07,0,0,1-.26.1l-.53.12-.71.12-.83.11-.86.14-.79.14-.63.12a3,3,0,0,0-.39.11.86.86,0,0,0-.53.45,1.39,1.39,0,0,0-.06.8,4.28,4.28,0,0,0,.41,1.09,9.93,9.93,0,0,0,.85,1.33c.19.24.36.48.52.71s.31.45.43.64.22.37.28.5a.85.85,0,0,1,.11.27s-.09.11-.24.2a6.26,6.26,0,0,1-.64.32c-.27.13-.59.27-.94.41s-.75.3-1.16.45c-.67.24-1.2.44-1.63.62a6,6,0,0,0-1,.54,3.25,3.25,0,0,0-.74.64,8.9,8.9,0,0,0-.69.91,12.3,12.3,0,0,1-1,1.34,11.73,11.73,0,0,1-1.19,1.15,11.37,11.37,0,0,1-1.3.92,7.94,7.94,0,0,1-1.35.65,9.08,9.08,0,0,0-1.08.48,2.34,2.34,0,0,0-.65.51,1.55,1.55,0,0,0-.31.66,4.29,4.29,0,0,0-.1,1,3.88,3.88,0,0,0,0,.7,3.4,3.4,0,0,0,.14.59,2.65,2.65,0,0,0,.27.53,3.61,3.61,0,0,0,.41.5,16.61,16.61,0,0,1,2,3c.83,1.44,1.77,3.24,2.73,5.21s1.92,4.09,2.8,6.17,1.67,4.12,2.29,5.92a23.94,23.94,0,0,1,.77,2.57,3.4,3.4,0,0,1,0,1.74,4.35,4.35,0,0,1-1,1.62c-.53.6-1.26,1.29-2.23,2.2-.38.37-.75.73-1.08,1.08s-.64.66-.89,1-.46.54-.61.73a.52.52,0,0,0,.05.89c.18.24.43.56.75.93s.7.79,1.13,1.24.88.92,1.37,1.41c.69.7,1.25,1.29,1.71,1.8s.82.92,1.09,1.27a4.58,4.58,0,0,1,.59.92,1.91,1.91,0,0,1,.2.72l.11,1.15.34-1.13a2,2,0,0,0,.1-.7,1.55,1.55,0,0,0-.32-.75,9.58,9.58,0,0,0-1-1.18c-.47-.51-1.09-1.14-1.91-2-.47-.47-.92-.94-1.33-1.39s-.78-.86-1.09-1.23-.56-.68-.74-.92-.27-.42-.26-.5a.92.92,0,0,1,.21-.42,6.28,6.28,0,0,1,.56-.71c.23-.27.51-.57.82-.89l1-1c.93-.86,1.63-1.52,2.14-2.09a4.66,4.66,0,0,0,1-1.51,3.09,3.09,0,0,0,.11-1.56,16.64,16.64,0,0,0-.57-2.23c-.26-.86-.67-2.06-1.18-3.4s-1.09-2.85-1.7-4.33-1.23-2.94-1.8-4.2-1.08-2.33-1.48-3l-.53-.88c-.2-.33-.43-.69-.66-1.05s-.46-.74-.69-1.09-.45-.69-.65-1-.39-.59-.55-.86-.31-.52-.42-.74-.2-.4-.25-.53-.07-.23,0-.26a1.4,1.4,0,0,1,.35,0,2.07,2.07,0,0,1,.41.07,4.77,4.77,0,0,1,.47.13l.49.17c.21.09.55.21,1,.34l1.47.44,1.79.49,1.89.51c.63.16,1.24.32,1.79.48s1.07.32,1.51.47.79.29,1.05.41a1,1,0,0,1,.45.3,64.49,64.49,0,0,1,1.72,6.26c.84,3.4,1.88,7.81,2.92,12.38s2.09,9.27,2.93,13.26,1.5,7.27,1.76,9c.07.41.13.78.18,1.09s.12.59.17.8a2.51,2.51,0,0,0,.15.48c.06.11.11.17.16.16s.15-.12.23-.37a11.15,11.15,0,0,0,.25-1.11c.09-.51.18-1.14.29-1.9s.22-1.67.35-2.72c.07-.56.16-1.18.26-1.82s.21-1.28.32-1.91.22-1.23.33-1.77.22-1,.31-1.42c.18-.67.47-1.55.83-2.52s.81-2,1.26-3.06.94-2,1.38-2.91a18.7,18.7,0,0,1,1.19-2l.61-.87,2.24.88a26.55,26.55,0,0,0,3.14,1c1.19.29,2.49.55,3.78.76s2.6.37,3.79.48a29.09,29.09,0,0,0,3.19.14l.6,0c.19,0,.37,0,.53-.06l.43-.08a2.14,2.14,0,0,0,.35-.1c.1,0,.07-.08-.05-.12a4.69,4.69,0,0,0-.67-.12c-.3,0-.7-.07-1.15-.1l-1.54-.06a34.28,34.28,0,0,1-3.52-.25,25.33,25.33,0,0,1-3.14-.57,22.67,22.67,0,0,1-3-.93,31.83,31.83,0,0,1-3-1.33,27.22,27.22,0,0,1-3.67-2.27,20.4,20.4,0,0,1-3-2.7,20.85,20.85,0,0,1-2.43-3.25,27.6,27.6,0,0,1-2-3.92c-.15-.34-.28-.65-.4-.91s-.23-.48-.32-.65-.16-.3-.22-.39-.1-.13-.13-.13,0,0,0,.15,0,.24.08.43.11.43.19.71.19.62.31,1a6,6,0,0,1,.22.73,4.43,4.43,0,0,1,.13.63,2.06,2.06,0,0,1,0,.47.34.34,0,0,1-.08.23,4.23,4.23,0,0,1-1.16-.08,5.89,5.89,0,0,1-1.21-.39,6.48,6.48,0,0,1-1.1-.61,4.32,4.32,0,0,1-.83-.74,5.63,5.63,0,0,1-1-1.8,6.06,6.06,0,0,1-.32-2,6.12,6.12,0,0,1,.37-2,6,6,0,0,1,1.07-1.81q.23-.25.42-.51c.13-.17.24-.33.34-.48s.17-.28.23-.39a.73.73,0,0,0,.08-.26,1.67,1.67,0,0,0-.11-.37c-.07-.19-.18-.44-.31-.73l-.47-1-.58-1.14a21,21,0,0,1-1.19-2.56,7.13,7.13,0,0,1-.45-2.16,9.57,9.57,0,0,1,.24-2.39c.2-.9.5-2,.92-3.25.24-.77.45-1.45.62-2.07s.32-1.2.43-1.72.19-1,.25-1.48a13,13,0,0,0,.1-1.37c0-.59,0-1,.08-1.44a5,5,0,0,1,.22-1.06,6.81,6.81,0,0,1,.51-1.08c.24-.41.54-.88.93-1.49q1.74-2.73,3.48-5c1.16-1.53,2.32-2.91,3.46-4.14a34.85,34.85,0,0,1,3.35-3.19,19.8,19.8,0,0,1,3.2-2.16,28.57,28.57,0,0,1,3.13-1.45,30.31,30.31,0,0,1,3.3-1.08,35.35,35.35,0,0,1,3.52-.73c1.21-.18,2.47-.32,3.77-.39l.62,0,.59,0,.57,0h.54a22.58,22.58,0,0,1,2.94.12,15.58,15.58,0,0,1,2.62.52,21,21,0,0,1,2.74,1c1,.44,2.06,1,3.3,1.64s2.26,1.22,3.13,1.79a14.57,14.57,0,0,1,2.28,1.79,17.32,17.32,0,0,1,2,2.3c.66.9,1.37,2,2.2,3.31.5.79,1,1.73,1.54,2.73s1,2,1.44,3,.8,1.92,1.06,2.69a6.29,6.29,0,0,1,.39,1.7c0,.13,0,.42,0,.83s.05.94.08,1.55.08,1.31.12,2,.1,1.53.16,2.32c.1,1.43.18,2.51.23,3.38s.06,1.54,0,2.13a13.1,13.1,0,0,1-.21,1.74c-.11.62-.27,1.31-.48,2.23l-.83,3.71.81,1.32a10.91,10.91,0,0,1,.65,1.25,4.68,4.68,0,0,1,.33,1.05,4,4,0,0,1,0,1,7.57,7.57,0,0,1-.26,1.23,5.72,5.72,0,0,1-.62,1.46,8.63,8.63,0,0,1-1,1.4,7.89,7.89,0,0,1-1.25,1.15,5,5,0,0,1-1.31.71,2.18,2.18,0,0,0-.54.25,3.63,3.63,0,0,0-.52.38,5.66,5.66,0,0,0-.49.49,6.34,6.34,0,0,0-.43.56c-.37.61-.82,1.25-1.31,1.91s-1,1.31-1.59,1.94-1.11,1.24-1.66,1.79a20.2,20.2,0,0,1-1.57,1.4c-.27.22-.53.43-.76.64s-.45.41-.63.6-.32.34-.43.47a.85.85,0,0,0-.17.29.86.86,0,0,0,.08.31,4.89,4.89,0,0,0,.23.49c.09.18.21.39.34.6s.26.44.41.66a14.27,14.27,0,0,1,1,1.73,19.73,19.73,0,0,1,.88,2.08c.27.78.53,1.64.79,2.6s.51,2.05.77,3.26l.88,4.07-.13-2.82-.13-2.87,5.2-5.65c.72-.78,1.48-1.63,2.22-2.49s1.5-1.74,2.19-2.58,1.35-1.64,1.91-2.36,1-1.34,1.36-1.84a100.33,100.33,0,0,0,5.45-8.81,91.67,91.67,0,0,0,4.36-9.12,94.37,94.37,0,0,0,3.35-9.59q1.44-4.93,2.42-10.22m-112.16,26.6c.1-.22.19-.43.26-.62a3.62,3.62,0,0,0,.16-.51,1.35,1.35,0,0,0,.06-.34q0-.12-.06-.12c-.19,0-.78,1.2-1.57,3s-1.78,4.27-2.74,6.77-1.91,5.08-2.62,7.15a24.47,24.47,0,0,0-1.18,4.12,1.16,1.16,0,0,0,.17.58,6.37,6.37,0,0,0,.56.84c.26.33.59.71,1,1.15s.9,1,1.48,1.53c.86.86,1.5,1.48,1.95,2a3.62,3.62,0,0,1,.83,1.16,1.21,1.21,0,0,1-.08,1,12.17,12.17,0,0,1-.77,1.36l-.08.14a.64.64,0,0,0-.06.11s0,0,0,.06l0,0s0,0,.09-.06a1.16,1.16,0,0,0,.17-.16,3.17,3.17,0,0,0,.26-.26l.32-.36c.19-.2.37-.41.52-.6a6.77,6.77,0,0,0,.4-.56,2.57,2.57,0,0,0,.24-.46.47.47,0,0,0,0-.29,1.61,1.61,0,0,0-.28-.4c-.17-.2-.4-.45-.68-.74s-.62-.63-1-1-.76-.74-1.18-1.12l-1.18-1.13-1-1c-.29-.31-.55-.58-.73-.79a2.57,2.57,0,0,1-.35-.46,8.76,8.76,0,0,1,.57-2.61c.44-1.47,1.08-3.41,1.82-5.5s1.57-4.35,2.38-6.44,1.61-4,2.27-5.42"/></g></g></g></svg>